<?xml version="1.0" encoding="UTF-8" standalone="no"?>
<!-- Created with Inkscape (http://www.inkscape.org/) -->

<svg
   xmlns:dc="http://purl.org/dc/elements/1.1/"
   xmlns:cc="http://creativecommons.org/ns#"
   xmlns:rdf="http://www.w3.org/1999/02/22-rdf-syntax-ns#"
   xmlns:svg="http://www.w3.org/2000/svg"
   xmlns="http://www.w3.org/2000/svg"
   xmlns:sodipodi="http://sodipodi.sourceforge.net/DTD/sodipodi-0.dtd"
   xmlns:inkscape="http://www.inkscape.org/namespaces/inkscape"
   width="100"
   height="100"
   viewBox="0 0 100 100"
   id="svg2"
   version="1.1"
   inkscape:version="0.91 r13725"
   sodipodi:docname="close.svg">
  <defs
     id="defs4" />
  <sodipodi:namedview
     id="base"
     pagecolor="#ffffff"
     bordercolor="#666666"
     borderopacity="1.0"
     inkscape:pageopacity="0.0"
     inkscape:pageshadow="2"
     inkscape:zoom="4"
     inkscape:cx="50.678451"
     inkscape:cy="53.167416"
     inkscape:document-units="px"
     inkscape:current-layer="layer1"
     showgrid="true"
     inkscape:window-width="1122"
     inkscape:window-height="636"
     inkscape:window-x="700"
     inkscape:window-y="332"
     inkscape:window-maximized="0"
     borderlayer="true"
     width="10mm"
     units="px"
     inkscape:snap-bbox="true"
     inkscape:bbox-nodes="true">
    <inkscape:grid
       type="xygrid"
       id="grid4136"
       spacingx="2.5"
       spacingy="2.5"
       empspacing="5"
       originx="2.5"
       originy="2.5" />
  </sodipodi:namedview>
  <metadata
     id="metadata7">
    <rdf:RDF>
      <cc:Work
         rdf:about="">
        <dc:format>image/svg+xml</dc:format>
        <dc:type
           rdf:resource="http://purl.org/dc/dcmitype/StillImage" />
        <dc:title></dc:title>
      </cc:Work>
    </rdf:RDF>
  </metadata>
  <g
     inkscape:label="Layer 1"
     inkscape:groupmode="layer"
     id="layer1"
     transform="translate(0,-952.36217)">
    <path
       inkscape:connector-curvature="0"
       style="fill:#000000;fill-opacity:1;stroke-width:0;stroke-linejoin:bevel;stroke-miterlimit:4;stroke-dasharray:none"
       d="m 50,954.86217 a 47.499999,47.500007 0 0 0 -47.5,47.50003 47.499999,47.500007 0 0 0 47.5,47.5 47.499999,47.500007 0 0 0 47.5,-47.5 A 47.499999,47.500007 0 0 0 50,954.86217 Z m 0,11.1758 A 36.323527,36.323534 0 0 1 86.32422,1002.3622 36.323527,36.323534 0 0 1 50,1038.6864 36.323527,36.323534 0 0 1 13.675781,1002.3622 36.323527,36.323534 0 0 1 50,966.03797 Z m -15,11.3242 -10,10 15,15.00003 -15,15 10,10 15,-15 15,15 10,-10 -15,-15 15,-15.00003 -10,-10 -15,15 -15,-15 z"
       id="path8658" />
  </g>
</svg>
