<?xml version="1.0" encoding="UTF-8" standalone="no"?>
<svg
   xmlns:dc="http://purl.org/dc/elements/1.1/"
   xmlns:cc="http://creativecommons.org/ns#"
   xmlns:rdf="http://www.w3.org/1999/02/22-rdf-syntax-ns#"
   xmlns:svg="http://www.w3.org/2000/svg"
   xmlns="http://www.w3.org/2000/svg"
   xmlns:sodipodi="http://sodipodi.sourceforge.net/DTD/sodipodi-0.dtd"
   xmlns:inkscape="http://www.inkscape.org/namespaces/inkscape"
   version="1.1"
   id="svg2"
   viewBox="0 0 100 100"
   height="100"
   width="100"
   inkscape:version="0.91 r13725"
   sodipodi:docname="painterro.svg">
  <sodipodi:namedview
     pagecolor="#ffffff"
     bordercolor="#666666"
     borderopacity="1"
     objecttolerance="10"
     gridtolerance="10"
     guidetolerance="10"
     inkscape:pageopacity="0"
     inkscape:pageshadow="2"
     inkscape:window-width="1127"
     inkscape:window-height="774"
     id="namedview4141"
     showgrid="true"
     inkscape:zoom="0.53125"
     inkscape:cx="-137.41575"
     inkscape:cy="312.80368"
     inkscape:window-x="701"
     inkscape:window-y="146"
     inkscape:window-maximized="0"
     inkscape:current-layer="svg2"
     inkscape:snap-bbox="true"
     inkscape:snap-object-midpoints="true"
     inkscape:bbox-nodes="true"
     inkscape:snap-bbox-midpoints="true"
     inkscape:object-nodes="true">
    <inkscape:grid
       type="xygrid"
       id="grid4164" />
  </sodipodi:namedview>
  <defs
     id="defs4" />
  <metadata
     id="metadata7">
    <rdf:RDF>
      <cc:Work
         rdf:about="">
        <dc:format>image/svg+xml</dc:format>
        <dc:type
           rdf:resource="http://purl.org/dc/dcmitype/StillImage" />
        <dc:title></dc:title>
      </cc:Work>
    </rdf:RDF>
  </metadata>
  <path
     style="fill:#000000;fill-opacity:1;fill-rule:evenodd;stroke:#000000;stroke-width:1.50300336px;stroke-linecap:butt;stroke-linejoin:miter;stroke-opacity:1"
     d="M 45,3 43,52 57,52 55,3 Z m -4,52 -0.992188,13.890625 c 0,0 3,0 6,2 3,2 3.986188,4.166125 3.992188,4.109375 0,0 1.007812,-2.109375 4.007812,-4.109375 3,-2 6,-2 6,-2 L 59,55 Z M 39.537109,71.578125 C 30.477486,71.357279 23.349363,81.41696 17,84 11.329757,86.093733 6.999708,83 7.5820312,80 7.999708,79 7.9634601,77.716337 12,77 9,75.461003 5.5441919,76.000071 4,78.416016 -1.4592713,85.875287 13.819755,95.546433 28,95 43.957488,93.81212 57.914597,78.90626 42.412109,71.996094 c -0.979801,-0.262537 -1.937797,-0.395123 -2.875,-0.417969 z m 20.832032,0.175781 c -0.937203,0.02285 -1.895199,0.155432 -2.875,0.417969 -15.502488,6.910166 -1.545379,21.816026 14.412109,23.003906 14.180245,0.546433 29.45927,-9.124713 24,-16.583984 -1.544192,-2.415945 -5,-2.955013 -8,-1.416016 4.03654,0.716337 4.000292,2 4.417969,3 0.582323,3 -3.747726,6.093733 -9.417969,4 C 76.556887,81.592741 69.428764,71.53306 60.369141,71.753906 Z"
     id="path4147"
     inkscape:connector-curvature="0"
     sodipodi:nodetypes="cccccccscscccsccccccssccccccs" />
</svg>
