<?xml version="1.0" encoding="UTF-8" standalone="no"?>
<!-- Created with Inkscape (http://www.inkscape.org/) -->

<svg
   xmlns:dc="http://purl.org/dc/elements/1.1/"
   xmlns:cc="http://creativecommons.org/ns#"
   xmlns:rdf="http://www.w3.org/1999/02/22-rdf-syntax-ns#"
   xmlns:svg="http://www.w3.org/2000/svg"
   xmlns="http://www.w3.org/2000/svg"
   xmlns:sodipodi="http://sodipodi.sourceforge.net/DTD/sodipodi-0.dtd"
   xmlns:inkscape="http://www.inkscape.org/namespaces/inkscape"
   width="100"
   height="100"
   viewBox="0 0 100 100"
   id="svg2"
   version="1.1"
   inkscape:version="0.91 r13725"
   sodipodi:docname="pipette.svg">
  <defs
     id="defs4" />
  <sodipodi:namedview
     id="base"
     pagecolor="#ffffff"
     bordercolor="#666666"
     borderopacity="1.0"
     inkscape:pageopacity="0.0"
     inkscape:pageshadow="2"
     inkscape:zoom="2.8284271"
     inkscape:cx="47.54883"
     inkscape:cy="94.511351"
     inkscape:document-units="px"
     inkscape:current-layer="layer1"
     showgrid="true"
     inkscape:window-width="1105"
     inkscape:window-height="754"
     inkscape:window-x="719"
     inkscape:window-y="251"
     inkscape:window-maximized="0"
     borderlayer="true"
     width="10mm"
     units="px"
     inkscape:snap-bbox="true"
     inkscape:bbox-nodes="true">
    <inkscape:grid
       type="xygrid"
       id="grid4136"
       spacingx="4.9999999"
       spacingy="4.9999999"
       empspacing="5"
       originx="2.5"
       originy="2.5"
       enabled="true" />
    <inkscape:grid
       type="xygrid"
       id="grid4209"
       spacingx="0.5"
       spacingy="0.5"
       empspacing="2"
       enabled="false" />
  </sodipodi:namedview>
  <metadata
     id="metadata7">
    <rdf:RDF>
      <cc:Work
         rdf:about="">
        <dc:format>image/svg+xml</dc:format>
        <dc:type
           rdf:resource="http://purl.org/dc/dcmitype/StillImage" />
        <dc:title></dc:title>
      </cc:Work>
    </rdf:RDF>
  </metadata>
  <g
     inkscape:label="Layer 1"
     inkscape:groupmode="layer"
     id="layer1"
     transform="translate(0,-952.36217)">
    <path
       style="fill:#000000;fill-opacity:1;stroke-width:0;stroke-miterlimit:4;stroke-dasharray:none"
       d="M 80.498047 7.5 C 77.43311 7.5 74.368044 8.6729544 72.019531 11.021484 L 55.640625 27.402344 L 54.814453 26.576172 C 52.237036 23.998752 48.087183 23.998752 45.509766 26.576172 C 42.932351 29.153602 42.932351 33.303439 45.509766 35.880859 L 48.751953 39.125 L 15.017578 72.859375 C 11.659871 76.217175 11.659871 81.624722 15.017578 84.982422 C 18.375284 88.340122 23.782918 88.340122 27.140625 84.982422 L 60.875 51.248047 L 64.117188 54.490234 C 66.694603 57.067634 70.846414 57.067634 73.423828 54.490234 C 76.001244 51.912834 76.001244 47.763027 73.423828 45.185547 L 72.597656 44.359375 L 88.976562 27.980469 C 93.673586 23.283419 93.673586 15.718544 88.976562 11.021484 C 86.62805 8.6729544 83.562982 7.5 80.498047 7.5 z M 52.888672 42.960938 L 57.039062 47.111328 L 52.621094 51.529297 C 52.60515 51.545989 52.594536 51.56562 52.578125 51.582031 L 23.738281 80.419922 C 22.586129 81.572074 20.73223 81.572074 19.580078 80.419922 C 18.427926 79.26777 18.427926 77.413871 19.580078 76.261719 L 48.417969 47.421875 C 48.43438 47.405464 48.454011 47.39485 48.470703 47.378906 L 52.888672 42.960938 z "
       transform="translate(0,952.36217)"
       id="rect4138-4-4" />
  </g>
</svg>
