<?xml version="1.0" encoding="UTF-8" standalone="no"?>
<svg
   xmlns:dc="http://purl.org/dc/elements/1.1/"
   xmlns:cc="http://creativecommons.org/ns#"
   xmlns:rdf="http://www.w3.org/1999/02/22-rdf-syntax-ns#"
   xmlns:svg="http://www.w3.org/2000/svg"
   xmlns="http://www.w3.org/2000/svg"
   xmlns:sodipodi="http://sodipodi.sourceforge.net/DTD/sodipodi-0.dtd"
   xmlns:inkscape="http://www.inkscape.org/namespaces/inkscape"
   version="1.1"
   id="svg2"
   viewBox="0 0 100 100"
   height="100"
   width="100"
   inkscape:version="0.91 r13725"
   sodipodi:docname="pixelize.svg">
  <sodipodi:namedview
     pagecolor="#ffffff"
     bordercolor="#666666"
     borderopacity="1"
     objecttolerance="10"
     gridtolerance="10"
     guidetolerance="10"
     inkscape:pageopacity="0"
     inkscape:pageshadow="2"
     inkscape:window-width="961"
     inkscape:window-height="884"
     id="namedview4161"
     showgrid="true"
     inkscape:snap-bbox="true"
     inkscape:bbox-nodes="true"
     inkscape:object-nodes="true"
     inkscape:zoom="2.36"
     inkscape:cx="96.961928"
     inkscape:cy="63.780031"
     inkscape:window-x="786"
     inkscape:window-y="70"
     inkscape:window-maximized="0"
     inkscape:current-layer="layer1">
    <inkscape:grid
       type="xygrid"
       id="grid4172" />
  </sodipodi:namedview>
  <defs
     id="defs4" />
  <metadata
     id="metadata7">
    <rdf:RDF>
      <cc:Work
         rdf:about="">
        <dc:format>image/svg+xml</dc:format>
        <dc:type
           rdf:resource="http://purl.org/dc/dcmitype/StillImage" />
        <dc:title></dc:title>
      </cc:Work>
    </rdf:RDF>
  </metadata>
  <g
     transform="translate(0,-952.36217)"
     id="layer1">
    <path
       style="fill:#000000;fill-opacity:1;stroke:none;stroke-width:0.1;stroke-miterlimit:4;stroke-dasharray:none;stroke-opacity:1"
       d="M 21 16 L 21 29 L 34 29 L 34 16 L 21 16 z M 36 16 L 36 29 L 49 29 L 49 16 L 36 16 z M 51 16 L 51 29 L 64 29 L 64 26 L 64 24 L 64 16 L 51 16 z M 66 26 L 66 39 L 79 39 L 79 26 L 66 26 z M 21 31 L 21 44 L 34 44 L 34 31 L 21 31 z M 66 41 L 66 54 L 79 54 L 79 41 L 66 41 z M 21 46 L 21 59 L 34 59 L 34 51 L 34 49 L 34 46 L 21 46 z M 36 51 L 36 64 L 49 64 L 49 51 L 36 51 z M 51 51 L 51 64 L 64 64 L 64 56 L 64 54 L 64 51 L 51 51 z M 21 61 L 21 74 L 34 74 L 34 61 L 21 61 z M 21 76 L 21 89 L 34 89 L 34 76 L 21 76 z "
       transform="translate(0,952.36217)"
       id="rect4258-0-77" />
  </g>
</svg>
