<?xml version="1.0" encoding="UTF-8" standalone="no"?>
<!-- Created with Inkscape (http://www.inkscape.org/) -->

<svg
   xmlns:dc="http://purl.org/dc/elements/1.1/"
   xmlns:cc="http://creativecommons.org/ns#"
   xmlns:rdf="http://www.w3.org/1999/02/22-rdf-syntax-ns#"
   xmlns:svg="http://www.w3.org/2000/svg"
   xmlns="http://www.w3.org/2000/svg"
   xmlns:sodipodi="http://sodipodi.sourceforge.net/DTD/sodipodi-0.dtd"
   xmlns:inkscape="http://www.inkscape.org/namespaces/inkscape"
   width="100"
   height="100"
   viewBox="0 0 100 100"
   id="svg2"
   version="1.1"
   inkscape:version="0.91 r13725"
   sodipodi:docname="unlinked.svg">
  <defs
     id="defs4" />
  <sodipodi:namedview
     id="base"
     pagecolor="#ffffff"
     bordercolor="#666666"
     borderopacity="1.0"
     inkscape:pageopacity="0.0"
     inkscape:pageshadow="2"
     inkscape:zoom="2.8284271"
     inkscape:cx="15.71249"
     inkscape:cy="72.494111"
     inkscape:document-units="px"
     inkscape:current-layer="layer1"
     showgrid="true"
     inkscape:window-width="1185"
     inkscape:window-height="675"
     inkscape:window-x="598"
     inkscape:window-y="143"
     inkscape:window-maximized="0"
     borderlayer="true"
     width="10mm"
     units="px"
     inkscape:snap-bbox="true"
     inkscape:bbox-nodes="true"
     inkscape:object-nodes="true">
    <inkscape:grid
       type="xygrid"
       id="grid4136"
       spacingx="1"
       spacingy="1"
       empspacing="5"
       originx="0"
       originy="0" />
  </sodipodi:namedview>
  <metadata
     id="metadata7">
    <rdf:RDF>
      <cc:Work
         rdf:about="">
        <dc:format>image/svg+xml</dc:format>
        <dc:type
           rdf:resource="http://purl.org/dc/dcmitype/StillImage" />
        <dc:title />
      </cc:Work>
    </rdf:RDF>
  </metadata>
  <g
     inkscape:label="Layer 1"
     inkscape:groupmode="layer"
     id="layer1"
     transform="translate(0,-952.36217)">
    <path
       style="fill:#000000;fill-opacity:1;fill-rule:evenodd;stroke:#000000;stroke-width:0;stroke-linecap:butt;stroke-linejoin:miter;stroke-opacity:1;stroke-miterlimit:4;stroke-dasharray:none"
       d="M 41.976562 4.6933594 L 29.951172 15.306641 L 29.951172 31.226562 L 41 43 L 42 43 L 42 38 L 42 36 L 35.962891 29.457031 L 35.962891 17.076172 L 43.980469 10 L 54 10 L 62.015625 17.076172 L 62.015625 29.457031 L 56 36 L 56 43 L 57 43 L 68.029297 31.226562 L 68.029297 15.306641 L 56.003906 4.6933594 L 41.976562 4.6933594 z M 14 32 L 12.117188 35.529297 L 28 44 L 29.882812 40.470703 L 14 32 z M 86 32 L 70.117188 40.470703 L 72 44 L 87.882812 35.529297 L 86 32 z M 10 48 L 10 52 L 28 52 L 28 48 L 10 48 z M 72 48 L 72 52 L 90 52 L 90 48 L 72 48 z M 28 56 L 12.117188 64.470703 L 14 68 L 29.882812 59.529297 L 28 56 z M 72 56 L 70.117188 59.529297 L 86 68 L 87.882812 64.470703 L 72 56 z M 41 57 L 29.951172 68.773438 L 29.951172 84.693359 L 41.976562 95.306641 L 56.003906 95.306641 L 68.029297 84.693359 L 68.029297 68.773438 L 57 57 L 56 57 L 56 64 L 62.015625 70.542969 L 62.015625 82.923828 L 54 90 L 43.980469 90 L 35.962891 82.923828 L 35.962891 70.542969 L 42 64 L 42 62 L 42 57 L 41 57 z "
       transform="translate(0,952.36217)"
       id="path4179" />
  </g>
</svg>
