<svg width="87" height="92" viewBox="0 0 87 92" fill="none" xmlns="http://www.w3.org/2000/svg">
<path d="M1.11303 58.704C-0.366971 61.0578 0.357632 64.1669 2.72577 65.6239L43.7008 90.8339C46.0335 92.2691 49.0868 91.5604 50.5489 89.2444L81.1093 40.8338C82.5954 38.4797 81.8725 35.3651 79.5014 33.9062L34.3244 6.11101L24.6566 0.247192L20.415 6.7671L30.0554 12.6731L1.11303 58.704ZM10.3322 61.1803L37.5059 17.7247L71.9027 38.3547L60.8158 57.0824L10.3322 61.1803Z" fill="black"/>
<path d="M86.5496 76.0853C86.5496 80.5036 82.9678 84.0853 78.5496 84.0853C74.1313 84.0853 70.5496 80.5036 70.5496 76.0853C70.5496 71.667 75.0496 68.0853 78.5496 58.0853C82.0496 67.5853 86.5496 71.667 86.5496 76.0853Z" fill="black"/>
</svg>
