<?xml version="1.0" encoding="UTF-8" standalone="no"?>
<!-- Svg Vector Icons : http://www.onlinewebfonts.com/icon -->

<svg
   xmlns:dc="http://purl.org/dc/elements/1.1/"
   xmlns:cc="http://creativecommons.org/ns#"
   xmlns:rdf="http://www.w3.org/1999/02/22-rdf-syntax-ns#"
   xmlns:svg="http://www.w3.org/2000/svg"
   xmlns="http://www.w3.org/2000/svg"
   xmlns:sodipodi="http://sodipodi.sourceforge.net/DTD/sodipodi-0.dtd"
   xmlns:inkscape="http://www.inkscape.org/namespaces/inkscape"
   version="1.1"
   viewBox="0 0 600 600"
   xml:space="preserve"
   id="svg5073"
   sodipodi:docname="bucket.svg"
   inkscape:version="0.92.2 5c3e80d, 2017-08-06"><defs
     id="defs5077" /><sodipodi:namedview
     pagecolor="#ffffff"
     bordercolor="#666666"
     borderopacity="1"
     objecttolerance="10"
     gridtolerance="10"
     guidetolerance="10"
     inkscape:pageopacity="0"
     inkscape:pageshadow="2"
     inkscape:window-width="1188"
     inkscape:window-height="916"
     id="namedview5075"
     showgrid="false"
     inkscape:zoom="0.96495838"
     inkscape:cx="296.61292"
     inkscape:cy="306.91401"
     inkscape:window-x="0"
     inkscape:window-y="-10"
     inkscape:window-maximized="0"
     inkscape:current-layer="svg5073" /><metadata
     id="metadata5063"> Svg Vector Icons : http://www.onlinewebfonts.com/icon <rdf:RDF><cc:Work
     rdf:about=""><dc:format>image/svg+xml</dc:format><dc:type
       rdf:resource="http://purl.org/dc/dcmitype/StillImage" /><dc:title /></cc:Work></rdf:RDF></metadata><g
     id="g5071"
     ><g
       transform="matrix(0.08,0,0,-0.08,0,280)"
       id="g5069"><path
         d="m 5807.6,4983.5 c -539.7,-86.3 -1099,-304.2 -1558.3,-606.4 -107.9,-72.6 -204.1,-129.5 -215.9,-129.5 -11.8,0 -111.9,41.2 -221.8,90.3 -190.4,84.4 -210,90.3 -341.5,80.5 -115.8,-5.9 -162.9,-19.6 -264.9,-78.5 C 2871.6,4153.5 2512.4,3737.4 2117.9,3078 1327.1,1761 714.8,35.9 714.8,-870.8 c 0,-359.1 58.9,-571.1 190.4,-694.8 35.3,-33.4 1104.9,-512.2 2949.7,-1322.7 2547.4,-1116.7 2908.5,-1269.8 3012.5,-1277.6 832.1,-62.8 2205.9,1944.9 2728,3987.9 115.8,453.3 155,728.1 155,1089.2 0,349.3 -25.5,502.4 -115.8,700.6 -90.3,200.2 -159,245.3 -755.6,504.4 -296.3,127.6 -541.7,235.5 -545.6,237.5 -2,2 11.8,72.6 29.4,159 55,243.3 49.1,804.6 -9.8,1036.2 -200.2,790.9 -755.6,1289.4 -1601.5,1434.6 -211.8,35.3 -718.2,35.3 -943.9,0 z m 953.8,-402.3 c 219.8,-47.1 382.7,-117.8 580.9,-247.3 423.9,-280.6 673.2,-779.1 673.2,-1344.3 0,-168.8 -29.4,-441.6 -49.1,-465.1 -3.9,-3.9 -755.6,321.9 -1672.1,724.2 -914.5,400.4 -1695.6,741.8 -1731,757.5 l -68.7,29.4 49.1,37.3 c 98.1,74.6 416.1,239.4 626.1,325.8 547.6,221.7 1108.9,286.5 1591.6,182.5 z m -3246,-602.5 C 3590,3864.9 3535,3321.2 3393.7,2761.9 3215.1,2067.2 2838.3,1103.5 2477.2,420.6 c -469,-883.2 -1067.6,-1668.2 -1271.7,-1668.2 -70.7,0 -98.1,72.6 -98.1,263 2,893 657.5,2704.4 1426.8,3946.7 286.5,459.2 694.7,953.8 859.6,1038.2 78.4,41.2 82.3,39.2 121.6,-21.6 z M 6013.7,2913 c 987.2,-431.8 1801.6,-792.9 1809.5,-800.7 17.7,-17.7 -127.6,-308.1 -243.4,-486.7 C 6998.9,730.7 5905.8,83 4891.1,33.9 L 4641.9,22.1 4628.2,79 c -39.3,164.9 -164.9,319.9 -325.8,398.4 -204.1,102.1 -404.3,72.6 -582.9,-88.3 -251.2,-225.7 -266.9,-535.8 -41.2,-781.1 212,-229.6 514.2,-249.2 755.6,-47.1 55,47.1 72.6,49.1 304.2,51 616.3,3.9 1313,210 1917.4,569.2 633.9,374.8 1144.1,928.3 1452.3,1574 49.1,102.1 92.2,188.4 94.2,192.3 11.8,13.7 1006.8,-435.7 1044.1,-473 78.5,-78.5 109.9,-263 98.1,-573.1 -31.4,-745.8 -308.1,-1681.9 -790.9,-2675 -382.7,-790.9 -724.2,-1313 -1104.9,-1691.7 -206.1,-204.1 -353.3,-294.4 -480.8,-294.4 -56.9,0 -714.4,280.6 -2698.5,1150.1 l -2624.1,1150.1 198.2,200.2 c 702.7,710.5 1585.8,2476.8 1952.8,3907.5 100.1,390.5 137.4,616.2 151.1,914.6 l 11.8,249.2 129.5,-55 c 70.7,-31.4 938.1,-410.2 1925.3,-843.9 z M 4168.9,106.6 c 68.7,-37.3 64.8,-213.9 -5.9,-259.1 -39.3,-25.5 -139.3,-17.7 -186.4,15.7 -33.4,23.5 -43.2,49.1 -43.2,115.8 0,66.7 9.8,92.2 43.2,115.8 49,35.3 137.3,41.2 192.3,11.8 z"
         id="path5065"
         inkscape:connector-curvature="0" /><path
         d="m 1019,-2413.4 c -76.5,-33.3 -100.1,-62.8 -239.4,-296.3 -268.9,-447.5 -475,-900.8 -518.1,-1138.3 -29.4,-155 -3.9,-314 74.6,-469.1 74.6,-147.2 259,-329.7 414.1,-406.2 123.6,-62.8 143.3,-66.7 337.6,-66.7 190.4,0 215.9,3.9 333.6,60.8 308.1,147.2 512.2,445.5 512.2,753.6 2,245.3 -202.1,732 -539.7,1289.4 -164.9,272.8 -245.4,331.7 -374.9,272.8 z m 270.8,-955.7 c 90.3,-176.6 178.6,-369 196.3,-427.9 106,-331.7 -60.8,-588.8 -384.6,-590.7 -190.4,0 -359.2,104 -408.2,253.2 -60.8,182.5 -7.8,369 231.6,826.2 143.3,274.8 162.9,302.2 186.4,278.7 7.8,-7.9 88.3,-160.9 178.5,-339.5 z"
         id="path5067"
         inkscape:connector-curvature="0" /></g></g></svg>