<svg width="75" height="75" viewBox="0 0 75 75" fill="none" xmlns="http://www.w3.org/2000/svg">
<path d="M37.5 0C32.5754 -1.31328e-07 27.6991 0.969939 23.1494 2.85449C18.5996 4.73905 14.4657 7.50132 10.9835 10.9835C7.50128 14.4657 4.73905 18.5996 2.8545 23.1494C0.969953 27.6991 -7.74796e-06 32.5754 0 37.5C-3.80829e-06 42.4246 0.96996 47.3009 2.85451 51.8506C4.73906 56.4004 7.50129 60.5343 10.9835 64.0165C14.4657 67.4987 18.5997 70.261 23.1494 72.1455C27.6991 74.0301 32.5754 75 37.5 75C42.4246 75 47.3009 74.0301 51.8506 72.1455C56.4003 70.261 60.5343 67.4987 64.0165 64.0165C67.4987 60.5343 70.2609 56.4004 72.1455 51.8506C74.03 47.3009 75 42.4246 75 37.5C75 32.5754 74.03 27.6991 72.1455 23.1494C70.261 18.5996 67.4987 14.4657 64.0165 10.9835C60.5343 7.50132 56.4004 4.73905 51.8506 2.85449C47.3009 0.969939 42.4246 -1.31328e-07 37.5 0ZM37.5 8.82422C45.1052 8.8244 52.3989 11.8457 57.7767 17.2234C63.1544 22.6011 66.1756 29.8948 66.1758 37.5C66.1756 45.1052 63.1544 52.399 57.7766 57.7767C52.3989 63.1544 45.1052 66.1756 37.5 66.1758C29.8948 66.1756 22.6011 63.1544 17.2233 57.7767C11.8456 52.399 8.82439 45.1052 8.82422 37.5C8.82439 29.8948 11.8456 22.6011 17.2233 17.2234C22.6011 11.8457 29.8948 8.8244 37.5 8.82422Z" fill="black"/>
</svg>
