<svg width="70" height="86" viewBox="0 0 70 86" fill="none" xmlns="http://www.w3.org/2000/svg">
<path fill-rule="evenodd" clip-rule="evenodd" d="M37.9478 85.5C38.6751 85.5001 39.3867 85.2488 39.9957 84.7767C40.6047 84.3047 41.0846 83.6323 41.3769 82.8418L69.6851 6.22852C69.9349 5.55211 70.0387 4.81247 69.9872 4.07648C69.9357 3.34049 69.7305 2.63134 69.3901 2.01312C69.0497 1.3949 68.5849 0.887127 68.0377 0.535645C67.4905 0.184162 66.8782 4.98575e-05 66.256 0H32.0522C31.3252 0.000245311 30.6139 0.251719 30.0053 0.723755C29.3966 1.19579 28.9169 1.86797 28.6247 2.6582L0.314918 79.2715C0.0651613 79.9479 -0.0386542 80.6875 0.0128538 81.4235C0.0643619 82.1595 0.26957 82.8686 0.609931 83.4868C0.950292 84.105 1.41508 84.6129 1.96227 84.9644C2.50947 85.3158 3.12184 85.5 3.74402 85.5H37.9478V85.5ZM48.4194 41.6562H22.3918L34.499 8.88867H60.5266L48.4194 41.6562V41.6562Z" fill="black"/>
<path d="M14.6189 43.8439H55.2189" stroke="black" stroke-width="0.888794"/>
</svg>
