<svg width="39" height="91" viewBox="0 0 39 91" fill="none" xmlns="http://www.w3.org/2000/svg">
<path fill-rule="evenodd" clip-rule="evenodd" d="M13.9163 0C12.6978 0 11.5213 0.444938 10.6077 1.25122L1.69143 9.12047C0.61601 10.0696 0 11.4349 0 12.8693V24.5545C0 25.8257 0.48417 27.0491 1.35405 27.9761L10.8421 38.0863C10.974 38.2269 11.1582 38.3066 11.351 38.3066V38.3066C11.7364 38.3066 12.0488 37.9942 12.0488 37.6088V33.3066V33.261C12.0488 32.0044 11.5757 30.7938 10.7236 29.8703L7.33699 26.2C6.48486 25.2765 6.01172 24.0659 6.01172 22.8094V14.6388C6.01172 13.2044 6.62772 11.8391 7.70313 10.89L12.6116 6.55788C13.5252 5.75159 14.7017 5.30664 15.9202 5.30664H22.1576C23.3763 5.30664 24.553 5.75174 25.4666 6.55828L30.3735 10.89C31.4486 11.8392 32.0645 13.2043 32.0645 14.6384V22.8145C32.0645 24.068 31.5936 25.2758 30.7452 26.1986L27.3681 29.8717C26.5197 30.7945 26.0488 32.0023 26.0488 33.2558V37.609C26.0488 37.9943 26.3612 38.3066 26.7464 38.3066V38.3066C26.9394 38.3066 27.1237 38.2268 27.2556 38.086L36.7271 27.9754C37.5951 27.0488 38.0781 25.8267 38.0781 24.5571V12.8693C38.0781 11.4349 37.4621 10.0696 36.3867 9.12047L27.4704 1.25122C26.5569 0.444938 25.3803 0 24.1619 0H13.9163ZM19.0488 25.2715C17.1417 25.2715 15.5957 26.8175 15.5957 28.7246V61.2266C15.5957 63.1337 17.1417 64.6797 19.0488 64.6797V64.6797C20.9559 64.6797 22.502 63.1337 22.502 61.2266V28.7246C22.502 26.8175 20.9559 25.2715 19.0488 25.2715V25.2715ZM11.351 52.3066C11.1582 52.3066 10.974 52.3864 10.8421 52.527L1.35405 62.6372C0.484171 63.5642 0 64.7876 0 66.0588V77.744C0 79.1784 0.616009 80.5437 1.69143 81.4928L10.6077 89.3621C11.5213 90.1683 12.6978 90.6133 13.9163 90.6133H24.1619C25.3803 90.6133 26.5569 90.1683 27.4704 89.3621L36.3867 81.4928C37.4621 80.5437 38.0781 79.1784 38.0781 77.744V66.0562C38.0781 64.7866 37.5951 63.5645 36.7271 62.6379L27.2556 52.5273C27.1237 52.3865 26.9394 52.3066 26.7464 52.3066V52.3066C26.3612 52.3066 26.0488 52.619 26.0488 53.0043V57.3574C26.0488 58.611 26.5197 59.8188 27.3681 60.7415L30.7452 64.4147C31.5936 65.3375 32.0645 66.5453 32.0645 67.7988V75.9749C32.0645 77.409 31.4486 78.7741 30.3735 79.7232L25.4666 84.055C24.553 84.8615 23.3763 85.3066 22.1576 85.3066H15.9202C14.7017 85.3066 13.5252 84.8617 12.6116 84.0554L7.70313 79.7233C6.62772 78.7741 6.01172 77.4089 6.01172 75.9745V67.8039C6.01172 66.5473 6.48486 65.3368 7.33699 64.4133L10.7236 60.743C11.5757 59.8194 12.0488 58.6089 12.0488 57.3523V57.3066V53.0045C12.0488 52.6191 11.7364 52.3066 11.351 52.3066V52.3066Z" fill="black"/>
</svg>
