<svg width="96" height="94" viewBox="0 0 96 94" fill="none" xmlns="http://www.w3.org/2000/svg">
<path d="M86 58.5C91.5228 58.5 96 54.0228 96 48.5C96 42.9772 91.5228 38.5 86 38.5C80.4772 38.5 76 42.9772 76 48.5C76 54.0228 80.4772 58.5 86 58.5Z" fill="black"/>
<path d="M74.2843 29.2157C79.2548 29.2157 83.2843 25.1863 83.2843 20.2157C83.2843 15.2451 79.2548 11.2157 74.2843 11.2157C69.3137 11.2157 65.2843 15.2451 65.2843 20.2157C65.2843 25.1863 69.3137 29.2157 74.2843 29.2157Z" fill="black"/>
<path d="M46 16C50.4183 16 54 12.4183 54 8C54 3.58172 50.4183 0 46 0C41.5817 0 38 3.58172 38 8C38 12.4183 41.5817 16 46 16Z" fill="black"/>
<path d="M17.7157 27.2157C21.5817 27.2157 24.7157 24.0817 24.7157 20.2157C24.7157 16.3497 21.5817 13.2157 17.7157 13.2157C13.8497 13.2157 10.7157 16.3497 10.7157 20.2157C10.7157 24.0817 13.8497 27.2157 17.7157 27.2157Z" fill="black"/>
<path d="M6 54.5C9.31371 54.5 12 51.8137 12 48.5C12 45.1863 9.31371 42.5 6 42.5C2.68629 42.5 0 45.1863 0 48.5C0 51.8137 2.68629 54.5 6 54.5Z" fill="black"/>
<path d="M17.7157 81.7843C20.4772 81.7843 22.7157 79.5457 22.7157 76.7843C22.7157 74.0229 20.4772 71.7843 17.7157 71.7843C14.9543 71.7843 12.7157 74.0229 12.7157 76.7843C12.7157 79.5457 14.9543 81.7843 17.7157 81.7843Z" fill="black"/>
<path d="M46 93.5C48.7614 93.5 51 91.2614 51 88.5C51 85.7386 48.7614 83.5 46 83.5C43.2386 83.5 41 85.7386 41 88.5C41 91.2614 43.2386 93.5 46 93.5Z" fill="black"/>
<path d="M74.2843 81.7843C77.0457 81.7843 79.2843 79.5457 79.2843 76.7843C79.2843 74.0229 77.0457 71.7843 74.2843 71.7843C71.5228 71.7843 69.2843 74.0229 69.2843 76.7843C69.2843 79.5457 71.5228 81.7843 74.2843 81.7843Z" fill="black"/>
</svg>
