<svg width="96" height="94" viewBox="0 0 96 94" fill="none" xmlns="http://www.w3.org/2000/svg">
<path fill-rule="evenodd" clip-rule="evenodd" d="M43.1337 1L41.1337 50H55.1337L53.1337 1H43.1337ZM39.1337 53L38.1415 66.8906C38.1415 66.8906 41.1415 66.8906 44.1415 68.8906C47.1415 70.8906 48.1277 73.0567 48.1337 73C48.1337 73 49.1415 70.8906 52.1415 68.8906C55.1415 66.8906 58.1415 66.8906 58.1415 66.8906L57.1337 53H39.1337ZM37.6708 69.5781C28.6112 69.3573 21.483 79.417 15.1337 82C9.46344 84.0937 5.13339 81 5.71571 78C6.13339 77 6.09714 75.7163 10.1337 75C7.13368 73.461 3.67787 74.0001 2.13368 76.416C-3.32559 83.8753 11.9534 93.5464 26.1337 93C42.0912 91.8121 56.0483 76.9063 40.5458 69.9961C39.566 69.7336 38.608 69.601 37.6708 69.5781ZM58.5028 69.7539C57.5656 69.7768 56.6076 69.9093 55.6278 70.1719C40.1253 77.082 54.0824 91.9879 70.0399 93.1758C84.2202 93.7222 99.4992 84.0511 94.0399 76.5918C92.4957 74.1759 89.0399 73.6368 86.0399 75.1758C90.0765 75.8921 90.0402 77.1758 90.4579 78.1758C91.0402 81.1758 86.7102 84.2695 81.0399 82.1758C74.6906 79.5927 67.5624 69.5331 58.5028 69.7539Z" fill="black" stroke="black" stroke-width="1.503"/>
</svg>
