<svg width="46" height="45" viewBox="0 0 46 45" fill="none" xmlns="http://www.w3.org/2000/svg">
<path fill-rule="evenodd" clip-rule="evenodd" d="M44 45C45.1046 45 46 44.1046 46 43L46 1.91567C46 0.857674 45.1423 0 44.0843 0H27.5672C26.4626 0 25.5672 0.895432 25.5672 2L25.5672 43C25.5672 44.1046 26.4626 45 27.5672 45H44ZM42.1677 39.248C42.1677 40.3526 41.2722 41.248 40.1677 41.248H31.3995C30.295 41.248 29.3995 40.3526 29.3995 39.248L29.3995 5.75195C29.3995 4.64738 30.295 3.75195 31.3995 3.75195H40.1677C41.2722 3.75195 42.1677 4.64738 42.1677 5.75195L42.1677 39.248ZM15.0809 40.1094L15.0809 29.3584H23.004V15.6416H21.0873H15.0809V4.87891L0 22.5215L15.0809 40.1094ZM11.2486 29.8027L5.00169 22.5176L11.2486 15.21L11.2486 19.3936H19.1717V25.6064H11.2486V29.8027Z" fill="black"/>
</svg>
