<svg width="91" height="90" viewBox="0 0 91 90" fill="none" xmlns="http://www.w3.org/2000/svg">
<path fill-rule="evenodd" clip-rule="evenodd" d="M2 0C0.895431 0 0 0.895431 0 2V88C0 89.1046 0.895431 90 2 90H3.75H37.998C39.1026 90 39.998 89.1046 39.998 88V2C39.998 0.89543 39.1026 0 37.998 0H2ZM7.50195 9.50391C7.50195 8.39934 8.39738 7.50391 9.50195 7.50391H30.4961C31.6007 7.50391 32.4961 8.39934 32.4961 9.50391V80.4961C32.4961 81.6007 31.6007 82.4961 30.4961 82.4961H9.50195C8.39738 82.4961 7.50195 81.6007 7.50195 80.4961V9.50391ZM60.5254 9.78125V31.2832H45.0156V58.7168H48.7676H60.5254V80.2422L90.0469 44.957L60.5254 9.78125ZM68.0273 30.3945L80.2559 44.9648L68.0273 59.5801V51.2129H52.5176V38.7871H68.0273V30.3945Z" fill="black"/>
</svg>
