<svg width="90" height="90" viewBox="0 0 90 90" fill="none" xmlns="http://www.w3.org/2000/svg">
<path d="M2 0C0.89543 0 0 0.89543 0 2V3.71484V88C0 89.1046 0.895431 90 2 90H88C89.1046 90 90 89.1046 90 88V2C90 0.89543 89.1046 0 88 0H2ZM7.42969 9.42969C7.42969 8.32512 8.32512 7.42969 9.42969 7.42969H80.5703C81.6749 7.42969 82.5703 8.32512 82.5703 9.42969V80.5703C82.5703 81.6749 81.6749 82.5703 80.5703 82.5703H9.42969C8.32512 82.5703 7.42969 81.6749 7.42969 80.5703V9.42969ZM75 15L48.3652 21.4434L61.8242 24.8086L45 34.9043L55.0938 45L65.1895 28.1738L68.5547 41.6348L75 15ZM35.0938 45L25.1855 61.5098L21.8828 48.3027L15 75L41.6973 68.1152L28.4883 64.8125L45 54.9062L35.0938 45Z" fill="black"/>
</svg>
