<svg width="45" height="46" viewBox="0 0 45 46" fill="none" xmlns="http://www.w3.org/2000/svg">
<path fill-rule="evenodd" clip-rule="evenodd" d="M0 44C0 45.1046 0.895431 46 2 46H43.0843C44.1423 46 45 45.1423 45 44.0843V27.5672C45 26.4626 44.1046 25.5672 43 25.5672L2 25.5672C0.89543 25.5672 0 26.4626 0 27.5672L0 44ZM5.75195 42.1677C4.64738 42.1677 3.75195 41.2722 3.75195 40.1677L3.75195 31.3995C3.75195 30.295 4.64738 29.3995 5.75195 29.3995L39.248 29.3995C40.3526 29.3995 41.248 30.295 41.248 31.3995V40.1677C41.248 41.2722 40.3526 42.1677 39.248 42.1677H5.75195ZM4.89063 15.0809H15.6416V23.004L29.3584 23.004V21.0873L29.3584 15.0809H40.1211L22.4785 0L4.89063 15.0809ZM15.1973 11.2486L22.4824 5.00169L29.79 11.2486H25.6064L25.6064 19.1717H19.3936L19.3936 11.2486H15.1973Z" fill="black"/>
</svg>
