<svg width="90" height="91" viewBox="0 0 90 91" fill="none" xmlns="http://www.w3.org/2000/svg">
<path fill-rule="evenodd" clip-rule="evenodd" d="M2 0C0.89543 0 0 0.895431 0 2V38C0 39.1046 0.895431 40 2 40H3.75195H88C89.1046 40 90 39.1046 90 38V2C90 0.895431 89.1046 0 88 0H2ZM7.50391 9.50391C7.50391 8.39934 8.39934 7.50391 9.50391 7.50391H80.4961C81.6007 7.50391 82.4961 8.39934 82.4961 9.50391V30.498C82.4961 31.6026 81.6007 32.498 80.4961 32.498H9.50391C8.39934 32.498 7.50391 31.6026 7.50391 30.498V9.50391ZM31.2109 44.9434V48.7695V60.4531H9.55664L45.043 90.1426L80.418 60.4531H58.7891V44.9434H31.2109ZM38.8594 52.5938H51.1406V68.1035H59.4043L45.0352 80.1621L30.6211 68.1035H38.8594V52.5938Z" fill="black"/>
</svg>
