<svg width="45" height="45" viewBox="0 0 45 45" fill="none" xmlns="http://www.w3.org/2000/svg">
<path fill-rule="evenodd" clip-rule="evenodd" d="M2 0C0.895434 0 0 0.895431 0 2V43.126C0 44.161 0.839029 45 1.87402 45H17.9886C19.0932 45 19.9886 44.1046 19.9886 43V2C19.9886 0.89543 19.0932 0 17.9886 0H2ZM3.74902 5.75195C3.74902 4.64738 4.64445 3.75195 5.74902 3.75195H14.2396C15.3442 3.75195 16.2396 4.64738 16.2396 5.75195V39.248C16.2396 40.3526 15.3442 41.248 14.2396 41.248H5.74902C4.64445 41.248 3.74902 40.3526 3.74902 39.248V5.75195ZM30.2469 4.89062V15.6416H22.4961V29.3584H24.3711H30.2469V40.1211L45 22.4785L30.2469 4.89062ZM33.996 15.1973L40.107 22.4824L33.996 29.79V25.6064H26.2451V19.3936H33.996V15.1973Z" fill="black"/>
</svg>
