<svg width="45" height="46" viewBox="0 0 45 46" fill="none" xmlns="http://www.w3.org/2000/svg">
<path fill-rule="evenodd" clip-rule="evenodd" d="M45 2C45 0.895431 44.1046 0 43 0L1.91567 0C0.857674 0 0 0.857674 0 1.91567V18.4328C0 19.5374 0.895432 20.4328 2 20.4328L43 20.4328C44.1046 20.4328 45 19.5374 45 18.4328V2ZM39.248 3.83234C40.3526 3.83234 41.248 4.72777 41.248 5.83234V14.6005C41.248 15.705 40.3526 16.6005 39.248 16.6005L5.75195 16.6005C4.64738 16.6005 3.75195 15.705 3.75195 14.6005V5.83234C3.75195 4.72777 4.64738 3.83234 5.75195 3.83234L39.248 3.83234ZM40.1094 30.9191L29.3584 30.9191L29.3584 22.996L15.6416 22.996V24.9127L15.6416 30.9191H4.87891L22.5215 46L40.1094 30.9191ZM29.8027 34.7514L22.5176 40.9983L15.21 34.7514H19.3936L19.3936 26.8283H25.6064L25.6064 34.7514L29.8027 34.7514Z" fill="black"/>
</svg>
