<svg width="80" height="80" viewBox="0 0 80 80" fill="none" xmlns="http://www.w3.org/2000/svg">
<path d="M67.9987 0C64.9338 0 61.8687 1.17295 59.5202 3.52148L43.1413 19.9023L42.3152 19.0762C39.7377 16.4988 35.5879 16.4988 33.0105 19.0762C30.4331 21.6536 30.4331 25.8034 33.0105 28.3809L36.2527 31.625L2.51828 65.3594C-0.839427 68.7172 -0.839427 74.1247 2.51828 77.4824C5.87599 80.8401 11.2836 80.8401 14.6413 77.4824L48.3757 43.748L51.6179 46.9902C54.1953 49.5676 58.3471 49.5676 60.9245 46.9902C63.5019 44.4128 63.5019 40.263 60.9245 37.6855L60.0984 36.8594L76.4773 20.4805C81.1743 15.7834 81.1743 8.21854 76.4773 3.52148C74.1288 1.17295 71.0637 0 67.9987 0ZM40.3894 35.4609L44.5398 39.6113L40.1218 44.0293C40.1059 44.046 40.0952 44.0656 40.0788 44.082L11.239 72.9199C10.0868 74.0721 8.23293 74.0721 7.08078 72.9199C5.92863 71.7678 5.92863 69.9139 7.08078 68.7617L35.9187 39.9219C35.9351 39.9055 35.9547 39.8949 35.9714 39.8789L40.3894 35.4609Z" fill="black"/>
</svg>
