<svg width="58" height="73" viewBox="0 0 58 73" fill="none" xmlns="http://www.w3.org/2000/svg">
<path d="M3 0C1.34315 0 0 1.34315 0 3V10C0 11.6569 1.34315 13 3 13H10C11.6569 13 13 11.6569 13 10V3C13 1.34315 11.6569 0 10 0H3ZM18 0C16.3431 0 15 1.34315 15 3V10C15 11.6569 16.3431 13 18 13H25C26.6569 13 28 11.6569 28 10V3C28 1.34315 26.6569 0 25 0H18ZM33 0C31.3431 0 30 1.34315 30 3V10C30 11.6569 31.3431 13 33 13H40C41.6569 13 43 11.6569 43 10V10V8V3C43 1.34315 41.6569 0 40 0H33ZM48 10C46.3431 10 45 11.3431 45 13V20C45 21.6569 46.3431 23 48 23H55C56.6569 23 58 21.6569 58 20V13C58 11.3431 56.6569 10 55 10H48ZM3 15C1.34315 15 0 16.3431 0 18V25C0 26.6569 1.34315 28 3 28H10C11.6569 28 13 26.6569 13 25V18C13 16.3431 11.6569 15 10 15H3ZM48 25C46.3431 25 45 26.3431 45 28V35C45 36.6569 46.3431 38 48 38H55C56.6569 38 58 36.6569 58 35V28C58 26.3431 56.6569 25 55 25H48ZM3 30C1.34315 30 0 31.3431 0 33V40C0 41.6569 1.34315 43 3 43H10C11.6569 43 13 41.6569 13 40V35V33V33C13 31.3431 11.6569 30 10 30H3ZM18 35C16.3431 35 15 36.3431 15 38V45C15 46.6569 16.3431 48 18 48H25C26.6569 48 28 46.6569 28 45V38C28 36.3431 26.6569 35 25 35H18ZM33 35C31.3431 35 30 36.3431 30 38V45C30 46.6569 31.3431 48 33 48H40C41.6569 48 43 46.6569 43 45V40V38V38C43 36.3431 41.6569 35 40 35H33ZM3 45C1.34315 45 0 46.3431 0 48V55C0 56.6569 1.34315 58 3 58H10C11.6569 58 13 56.6569 13 55V48C13 46.3431 11.6569 45 10 45H3ZM3 60C1.34315 60 0 61.3431 0 63V70C0 71.6569 1.34315 73 3 73H10C11.6569 73 13 71.6569 13 70V63C13 61.3431 11.6569 60 10 60H3Z" fill="black"/>
</svg>
