<svg width="72" height="85" viewBox="0 0 72 85" fill="none" xmlns="http://www.w3.org/2000/svg">
<path d="M36.3906 0L38.377 15.0488L34 14.998C14.67 14.998 -1.7e-05 30.6699 0 50C0 69.33 15.67 85 35 85C42.1082 85 48.721 82.8809 54.2422 79.2402C55.0405 78.7138 55.8136 78.1528 56.5645 77.5645L49.418 70.416C49.3182 70.487 49.222 70.5636 49.1211 70.6328C45.1032 73.3878 40.2397 75 35 75C21.1929 75 10 63.8071 10 50C9.99998 36.1928 20.1929 24.998 34 24.998V24.9589L38.377 24.9473L36.3867 39.9999L71.6113 19.998L36.3906 0V0Z" fill="black"/>
</svg>
