<svg width="80" height="76" viewBox="0 0 80 76" fill="none" xmlns="http://www.w3.org/2000/svg">
<path fill-rule="evenodd" clip-rule="evenodd" d="M1 0C0.447716 0 0 0.447715 0 1V75C0 75.5523 0.447715 76 1 76H79C79.5523 76 80 75.5523 80 75V16.4142C80 16.149 79.8946 15.8946 79.7071 15.7071L64.2929 0.292892C64.1054 0.105356 63.851 0 63.5858 0H53C52.4477 0 52 0.447715 52 1V29C52 29.5523 51.5523 30 51 30H15C14.4477 30 14 29.5523 14 29V1C14 0.447716 13.5523 0 13 0H1Z" fill="black"/>
<path fill-rule="evenodd" clip-rule="evenodd" d="M40.021 3C37.2595 3 35 5.23858 35 8V19.5547C35 22.3161 37.2449 24.5547 40.0063 24.5547V24.5547C42.7628 24.5547 45.0057 22.3238 45.0127 19.5674L45.042 8.01269C45.049 5.24632 42.7873 3 40.021 3V3Z" fill="black"/>
</svg>
