<svg width="84" height="58" viewBox="0 0 84 58" fill="none" xmlns="http://www.w3.org/2000/svg">
<path d="M5 0H2C0.895431 0 0 0.89543 0 2V8C0 9.10457 0.89543 10 2 10H5C6.10457 10 7 9.10457 7 8V2C7 0.895431 6.10457 0 5 0Z" fill="black"/>
<path d="M82 0H79C77.8954 0 77 0.89543 77 2V8C77 9.10457 77.8954 10 79 10H82C83.1046 10 84 9.10457 84 8V2C84 0.895431 83.1046 0 82 0Z" fill="black"/>
<path d="M5 16H2C0.895431 16 0 16.8954 0 18V24C0 25.1046 0.89543 26 2 26H5C6.10457 26 7 25.1046 7 24V18C7 16.8954 6.10457 16 5 16Z" fill="black"/>
<path d="M5 32H2C0.895431 32 0 32.8954 0 34V40C0 41.1046 0.89543 42 2 42H5C6.10457 42 7 41.1046 7 40V34C7 32.8954 6.10457 32 5 32Z" fill="black"/>
<path d="M21 0H15C13.8954 0 13 0.89543 13 2V5C13 6.10457 13.8954 7 15 7H21C22.1046 7 23 6.10457 23 5V2C23 0.895431 22.1046 0 21 0Z" fill="black"/>
<path d="M37 0H31C29.8954 0 29 0.89543 29 2V5C29 6.10457 29.8954 7 31 7H37C38.1046 7 39 6.10457 39 5V2C39 0.895431 38.1046 0 37 0Z" fill="black"/>
<path d="M53 0H47C45.8954 0 45 0.89543 45 2V5C45 6.10457 45.8954 7 47 7H53C54.1046 7 55 6.10457 55 5V2C55 0.895431 54.1046 0 53 0Z" fill="black"/>
<path d="M69 0H63C61.8954 0 61 0.89543 61 2V5C61 6.10457 61.8954 7 63 7H69C70.1046 7 71 6.10457 71 5V2C71 0.895431 70.1046 0 69 0Z" fill="black"/>
<path d="M69 51H63C61.8954 51 61 51.8954 61 53V56C61 57.1046 61.8954 58 63 58H69C70.1046 58 71 57.1046 71 56V53C71 51.8954 70.1046 51 69 51Z" fill="black"/>
<path d="M5 48H2C0.895431 48 0 48.8954 0 50V56C0 57.1046 0.89543 58 2 58H5C6.10457 58 7 57.1046 7 56V50C7 48.8954 6.10457 48 5 48Z" fill="black"/>
<path d="M82 16H79C77.8954 16 77 16.8954 77 18V24C77 25.1046 77.8954 26 79 26H82C83.1046 26 84 25.1046 84 24V18C84 16.8954 83.1046 16 82 16Z" fill="black"/>
<path d="M82 32H79C77.8954 32 77 32.8954 77 34V40C77 41.1046 77.8954 42 79 42H82C83.1046 42 84 41.1046 84 40V34C84 32.8954 83.1046 32 82 32Z" fill="black"/>
<path d="M82 48H79C77.8954 48 77 48.8954 77 50V56C77 57.1046 77.8954 58 79 58H82C83.1046 58 84 57.1046 84 56V50C84 48.8954 83.1046 48 82 48Z" fill="black"/>
<path d="M21 51H15C13.8954 51 13 51.8954 13 53V56C13 57.1046 13.8954 58 15 58H21C22.1046 58 23 57.1046 23 56V53C23 51.8954 22.1046 51 21 51Z" fill="black"/>
<path d="M37 51H31C29.8954 51 29 51.8954 29 53V56C29 57.1046 29.8954 58 31 58H37C38.1046 58 39 57.1046 39 56V53C39 51.8954 38.1046 51 37 51Z" fill="black"/>
<path d="M53 51H47C45.8954 51 45 51.8954 45 53V56C45 57.1046 45.8954 58 47 58H53C54.1046 58 55 57.1046 55 56V53C55 51.8954 54.1046 51 53 51Z" fill="black"/>
</svg>
