<svg width="85" height="85" viewBox="0 0 85 85" fill="none" xmlns="http://www.w3.org/2000/svg">
<path d="M37 0C35.8954 0 35 0.89543 35 2V9.33405C35 10.2603 34.362 11.059 33.4724 11.317C31.1521 11.9896 28.9141 12.9189 26.7998 14.0875C25.988 14.5363 24.9702 14.4233 24.3143 13.7674L19.1485 8.60158C18.3675 7.82059 17.1012 7.82053 16.3202 8.60145L8.57658 16.3436C7.79541 17.1246 7.79535 18.3911 8.57645 19.1722L13.741 24.3367C14.3956 24.9913 14.5095 26.0065 14.0636 26.8178C12.897 28.9404 11.9713 31.1868 11.3038 33.515C11.0479 34.4077 10.2478 35.0488 9.31919 35.0488H2C0.89543 35.0488 0 35.9443 0 37.0488V48C0 49.1046 0.89543 50 2 50H9.33404C10.2603 50 11.059 50.638 11.317 51.5276C11.9896 53.8479 12.9189 56.0859 14.0875 58.2002C14.5363 59.012 14.4233 60.0298 13.7674 60.6857L8.57632 65.8768C7.79527 66.6579 7.79527 67.9242 8.57632 68.7052L16.32 76.4489C17.1011 77.23 18.3676 77.2299 19.1486 76.4487L24.3367 71.2593C24.9913 70.6045 26.0066 70.4905 26.8179 70.9364C28.9265 72.0953 31.1573 73.0164 33.4692 73.6828C34.3604 73.9397 35 74.7391 35 75.6666V82.9512C35 84.0557 35.8954 84.9512 37 84.9512H48C49.1046 84.9512 50 84.0557 50 82.9512V75.6657C50 74.7396 50.6379 73.9409 51.5274 73.6829C53.8364 73.0131 56.0641 72.0892 58.1694 70.9281C58.9811 70.4804 59.998 70.5938 60.6534 71.2494L65.8514 76.4487C66.6324 77.2299 67.8989 77.23 68.68 76.4489L76.4237 68.7052C77.2047 67.9242 77.2047 66.6579 76.4237 65.8768L71.2425 60.6956C70.5874 60.0406 70.4739 59.0244 70.9208 58.2129C72.0872 56.0953 73.0136 53.8541 73.683 51.5311C73.9398 50.6398 74.7393 50 75.6668 50H83C84.1046 50 85 49.1046 85 48V37.0488C85 35.9443 84.1046 35.0488 83 35.0488H75.6647C74.7363 35.0488 73.9364 34.408 73.6803 33.5156C73.0133 31.1913 72.0889 28.9487 70.9244 26.8294C70.4786 26.0182 70.5926 25.0031 71.2472 24.3485L76.4235 19.1722C77.2046 18.3911 77.2046 17.1246 76.4234 16.3436L68.6798 8.60145C67.8988 7.82053 66.6325 7.82059 65.8515 8.60158L60.6956 13.7575C60.0406 14.4126 59.0244 14.5261 58.2129 14.0792C56.0953 12.9128 53.8541 11.9864 51.5311 11.317C50.6398 11.0602 50 10.2607 50 9.33317V2C50 0.895431 49.1046 0 48 0H37ZM42.5 25.2949C47.063 25.2951 51.4391 27.1079 54.6656 30.3344C57.8921 33.5609 59.7049 37.937 59.7051 42.5C59.7049 47.063 57.8921 51.4391 54.6656 54.6656C51.4391 57.8921 47.063 59.7049 42.5 59.7051C37.937 59.7049 33.5609 57.8921 30.3344 54.6656C27.1079 51.4391 25.2951 47.063 25.2949 42.5C25.2951 37.937 27.1079 33.5609 30.3344 30.3344C33.5609 27.1079 37.937 25.2951 42.5 25.2949Z" fill="black"/>
</svg>
