<svg width="80" height="91" viewBox="0 0 80 91" fill="none" xmlns="http://www.w3.org/2000/svg">
<path fill-rule="evenodd" clip-rule="evenodd" d="M33.8674 0C32.649 0 31.4724 0.444938 30.5589 1.25122L21.6426 9.12047C20.5672 10.0696 19.9512 11.4349 19.9512 12.8693V24.5545C19.9512 25.8257 20.4353 27.0491 21.3052 27.9761L31 38.3066H32V33.3066V31.3066L27.2882 26.2C26.436 25.2765 25.9629 24.0659 25.9629 22.8094V14.6388C25.9629 13.2044 26.5789 11.8391 27.6543 10.89L32.5628 6.55788C33.4763 5.75159 34.6529 5.30664 35.8714 5.30664H42.1088C43.3275 5.30664 44.5042 5.75174 45.4178 6.55828L50.3247 10.89C51.3998 11.8392 52.0156 13.2043 52.0156 14.6384V22.8145C52.0156 24.068 51.5448 25.2758 50.6964 26.1986L46 31.3066V38.3066H47L56.6783 27.9754C57.5463 27.0488 58.0293 25.8267 58.0293 24.5571V12.8693C58.0293 11.4349 57.4133 10.0696 56.3379 9.12047L47.4216 1.25122C46.508 0.444938 45.3315 0 44.113 0H33.8674ZM5.76455 28.2477C4.78998 27.728 3.57859 28.0966 3.05871 29.0711V29.0711C2.53874 30.0457 2.90743 31.2574 3.88216 31.7772L16.2355 38.3656C17.21 38.8853 18.4214 38.5167 18.9413 37.5422V37.5422C19.4613 36.5675 19.0926 35.3559 18.1178 34.836L5.76455 28.2477ZM76.9413 29.0711C76.4214 28.0966 75.21 27.728 74.2355 28.2477L61.8822 34.836C60.9074 35.3559 60.5387 36.5675 61.0587 37.5422V37.5422C61.5786 38.5167 62.79 38.8853 63.7645 38.3656L76.1178 31.7772C77.0926 31.2574 77.4613 30.0457 76.9413 29.0711V29.0711ZM2 43.3066C0.89543 43.3066 0 44.2021 0 45.3066V45.3066C0 46.4112 0.895431 47.3066 2 47.3066H16C17.1046 47.3066 18 46.4112 18 45.3066V45.3066C18 44.2021 17.1046 43.3066 16 43.3066H2ZM64 43.3066C62.8954 43.3066 62 44.2021 62 45.3066V45.3066C62 46.4112 62.8954 47.3066 64 47.3066H78C79.1046 47.3066 80 46.4112 80 45.3066V45.3066C80 44.2021 79.1046 43.3066 78 43.3066H64ZM18.9413 53.0711C18.4214 52.0966 17.21 51.728 16.2355 52.2477L3.88216 58.836C2.90743 59.3559 2.53874 60.5675 3.05871 61.5422V61.5422C3.57859 62.5167 4.78998 62.8853 5.76455 62.3656L18.1178 55.7772C19.0926 55.2574 19.4613 54.0457 18.9413 53.0711V53.0711ZM63.7645 52.2477C62.79 51.728 61.5786 52.0966 61.0587 53.0711V53.0711C60.5387 54.0457 60.9074 55.2574 61.8822 55.7772L74.2355 62.3656C75.21 62.8853 76.4214 62.5167 76.9413 61.5422V61.5422C77.4613 60.5675 77.0926 59.3559 76.1178 58.836L63.7645 52.2477ZM31 52.3066L21.3052 62.6372C20.4353 63.5642 19.9512 64.7876 19.9512 66.0588V77.744C19.9512 79.1784 20.5672 80.5437 21.6426 81.4928L30.5589 89.3621C31.4724 90.1683 32.649 90.6133 33.8674 90.6133H44.113C45.3315 90.6133 46.508 90.1683 47.4216 89.3621L56.3379 81.4928C57.4133 80.5437 58.0293 79.1784 58.0293 77.744V66.0562C58.0293 64.7866 57.5463 63.5645 56.6783 62.6379L47 52.3066H46V59.3066L50.6964 64.4147C51.5448 65.3375 52.0156 66.5453 52.0156 67.7988V75.9749C52.0156 77.409 51.3998 78.7741 50.3247 79.7232L45.4178 84.055C44.5042 84.8615 43.3275 85.3066 42.1088 85.3066H35.8714C34.6529 85.3066 33.4763 84.8617 32.5628 84.0554L27.6543 79.7233C26.5789 78.7741 25.9629 77.4089 25.9629 75.9745V67.8039C25.9629 66.5473 26.436 65.3368 27.2882 64.4133L32 59.3066V57.3066V52.3066H31Z" fill="black"/>
</svg>
