<svg width="77" height="77" viewBox="0 0 77 77" fill="none" xmlns="http://www.w3.org/2000/svg">
<path d="M46.6875 28.6685H36.8096H18.7568C16.4927 28.6685 15.1738 30.4918 15.1738 32.7559C15.1738 35.02 16.4927 36.8434 18.7568 36.8434H36.8096H46.6875C48.9516 36.8434 50.1738 35.02 50.1738 32.7559C50.1738 30.4918 48.9316 28.6685 46.6875 28.6685Z" fill="black"/>
<path d="M32.5465 57.6989C18.0935 57.6989 7.37862 46.9996 7.37862 32.5465C7.37862 18.0935 18.0935 7.39418 32.5465 7.39418C46.9996 7.39418 57.6989 18.1091 57.6989 32.5465C57.6989 46.984 46.984 57.6989 32.5465 57.6989ZM75.2989 70.8338L59.2642 51.5793C63.8848 45.963 65.0775 40.3876 65.0775 32.5465C65.0775 14.5775 50.5156 0 32.531 0C14.5464 0 0 14.5775 0 32.5465C0 50.5156 14.5619 65.0931 32.5465 65.0931C40.3876 65.0931 46.0252 63.8226 51.6415 59.202L70.8183 75.33C71.6273 76.1545 74.1009 76.559 75.3144 75.33C76.5435 74.0854 76.5435 72.0784 75.2989 70.8338Z" fill="black"/>
</svg>
