<svg width="78" height="77" viewBox="0 0 78 77" fill="none" xmlns="http://www.w3.org/2000/svg">
<path d="M47.5137 29.5611H37.6357V19.6832C37.6357 17.419 35.8124 16 33.5483 16C31.2842 16 29.4609 17.419 29.4609 19.6832V29.5611H19.583C17.3189 29.5611 16 31.3844 16 33.6485C16 35.9126 17.3189 37.7359 19.583 37.7359H29.4609V47.6139C29.4609 49.878 31.2842 51 33.5483 51C35.8124 51 37.6357 49.878 37.6357 47.6139V37.7359H47.5137C49.7778 37.7359 51 35.9126 51 33.6485C51 31.3844 49.7577 29.5611 47.5137 29.5611Z" fill="black"/>
<path d="M33.3727 58.5915C18.9197 58.5915 8.2048 47.8921 8.2048 33.4391C8.2048 18.9861 18.9197 8.28676 33.3727 8.28676C47.8257 8.28676 58.5251 19.0016 58.5251 33.4391C58.5251 47.8766 47.8102 58.5915 33.3727 58.5915ZM76.125 71.7264L60.0904 52.4718C64.711 46.8555 65.9037 41.2802 65.9037 33.4391C65.9037 15.4701 51.3418 0.892578 33.3572 0.892578C15.3725 0.892578 0.826172 15.4701 0.826172 33.4391C0.826172 51.4082 15.3881 65.9857 33.3727 65.9857C41.2138 65.9857 46.8514 64.7152 52.4677 60.0945L71.6445 76.2226C72.4535 77.0471 74.9271 77.4516 76.1406 76.2226C77.3697 74.978 77.3697 72.971 76.125 71.7264Z" fill="black"/>
</svg>
