<?xml version="1.0" standalone="no"?> 
<!DOCTYPE svg PUBLIC "-//W3C//DTD SVG 1.1//EN" "http://www.w3.org/Graphics/SVG/1.1/DTD/svg11.dtd" >
<svg xmlns="http://www.w3.org/2000/svg">
<defs>
  <font id="ptroiconfont" horiz-adv-x="612">
    <font-face font-family="ptroiconfont"
      units-per-em="612" ascent="612"
      descent="0" />
    <missing-glyph horiz-adv-x="0" />
    <glyph glyph-name="apply"
      unicode="&#xF101;"
      horiz-adv-x="830.5714285714286" d=" M778.938 601.883A52.97875264285714 52.97875264285714 0 0 1 738.02 584.017L326.064 131.356L92.103 365.317A52.97875264285714 52.97875264285714 0 1 1 17.183 290.397L290.397 17.183A52.97875264285714 52.97875264285714 0 0 1 367.025 18.997L816.377 512.704A52.97875264285714 52.97875264285714 0 0 1 778.938 601.883z" />
    <glyph glyph-name="apply-1"
      unicode="&#x61;&#x70;&#x70;&#x6C;&#x79;"
      horiz-adv-x="830.5714285714286" d=" M778.938 601.883A52.97875264285714 52.97875264285714 0 0 1 738.02 584.017L326.064 131.356L92.103 365.317A52.97875264285714 52.97875264285714 0 1 1 17.183 290.397L290.397 17.183A52.97875264285714 52.97875264285714 0 0 1 367.025 18.997L816.377 512.704A52.97875264285714 52.97875264285714 0 0 1 778.938 601.883z" />
    <glyph glyph-name="arrow"
      unicode="&#xF102;"
      horiz-adv-x="612" d=" M247.647 532.519L370.314 431.71L12.201 73.597C-3.316 58.079 -3.316 32.92 12.202 17.402V17.402C27.719 1.884 52.879 1.884 68.397 17.402L428.351 377.356L525.829 254.338L605.309 612L247.647 532.519z" />
    <glyph glyph-name="arrow-1"
      unicode="&#x61;&#x72;&#x72;&#x6F;&#x77;"
      horiz-adv-x="612" d=" M247.647 532.519L370.314 431.71L12.201 73.597C-3.316 58.079 -3.316 32.92 12.202 17.402V17.402C27.719 1.884 52.879 1.884 68.397 17.402L428.351 377.356L525.829 254.338L605.309 612L247.647 532.519z" />
    <glyph glyph-name="brush"
      unicode="&#xF103;"
      horiz-adv-x="635.5384615384615" d=" M546.795 612L380.339 445.56L324.865 501.035L269.39 445.545L324.865 390.071L408.092 306.842L463.566 251.367L519.057 306.842L463.582 362.318L630.022 528.773L546.795 612zM241.652 414.222C241.652 414.222 127.093 320.378 17.179 315.655C15.205 315.568 0 316.758 0 316.758C27.74 178.055 205.095 0.462 325.585 2.145C326.979 2.145 330.453 6.774 331.469 7.769C435.834 110.349 432.764 222.757 432.764 222.757L241.652 414.222z" />
    <glyph glyph-name="brush-1"
      unicode="&#x62;&#x72;&#x75;&#x73;&#x68;"
      horiz-adv-x="635.5384615384615" d=" M546.795 612L380.339 445.56L324.865 501.035L269.39 445.545L324.865 390.071L408.092 306.842L463.566 251.367L519.057 306.842L463.582 362.318L630.022 528.773L546.795 612zM241.652 414.222C241.652 414.222 127.093 320.378 17.179 315.655C15.205 315.568 0 316.758 0 316.758C27.74 178.055 205.095 0.462 325.585 2.145C326.979 2.145 330.453 6.774 331.469 7.769C435.834 110.349 432.764 222.757 432.764 222.757L241.652 414.222z" />
    <glyph glyph-name="bucket"
      unicode="&#xF104;"
      horiz-adv-x="612" d=" M473.9 733.054C429.861 726.012 384.222 708.231 346.743 683.571C337.938 677.647 330.088 673.004 329.125 673.004C328.163 673.004 319.994 676.366 311.027 680.373C295.49 687.26 293.891 687.741 283.16 686.941C273.711 686.46 269.868 685.342 261.544 680.536C234.323 665.326 205.012 631.372 172.821 577.565C108.291 470.098 58.328 329.329 58.328 255.343C58.328 226.04 63.134 208.741 73.864 198.647C76.745 195.922 164.024 156.852 314.56 90.715C522.428 -0.408 551.893 -12.901 560.38 -13.537C628.279 -18.662 740.381 145.166 782.985 311.875C792.434 348.864 795.633 371.288 795.633 400.754C795.633 429.257 793.552 441.75 786.183 457.923C778.815 474.259 773.209 477.939 724.526 499.082C700.348 509.494 680.324 518.299 680.005 518.462C679.842 518.625 680.968 524.386 682.404 531.436C686.892 551.29 686.411 597.092 681.605 615.99C665.268 680.528 619.948 721.205 550.922 733.054C533.64 735.934 492.317 735.934 473.9 733.054zM551.73 700.226C569.666 696.383 582.959 690.613 599.132 680.046C633.722 657.149 654.065 616.472 654.065 570.351C654.065 556.577 651.666 534.317 650.058 532.399C649.74 532.081 588.401 558.666 513.615 591.494C438.992 624.167 375.254 652.025 372.365 653.306L366.759 655.705L370.766 658.749C378.771 664.836 404.72 678.284 421.856 685.334C466.54 703.425 512.342 708.712 551.73 700.226zM286.857 651.062C292.944 641.776 288.456 597.41 276.926 551.771C262.352 495.084 231.605 416.446 202.14 360.721C163.869 288.652 115.023 224.596 98.369 224.596C92.6 224.596 90.364 230.52 90.364 246.057C90.527 318.925 144.016 466.736 206.791 568.107C230.169 605.578 263.478 645.937 276.934 652.824C283.332 656.186 283.65 656.023 286.857 651.062zM490.718 564.101C571.273 528.866 637.728 499.4 638.373 498.764C639.817 497.319 627.961 473.623 618.512 459.049C571.11 386.025 481.913 333.173 399.114 329.166L378.779 328.203L377.661 332.846C374.454 346.302 364.205 358.95 351.076 365.356C334.421 373.687 318.085 371.28 303.511 358.151C283.013 339.733 281.732 314.429 300.149 294.413C317.448 275.677 342.108 274.078 361.806 290.569C366.294 294.413 367.73 294.576 386.629 294.731C436.919 295.049 493.77 311.867 543.089 341.178C594.815 371.761 636.447 416.927 661.596 469.616C665.603 477.948 669.12 484.99 669.283 485.308C670.246 486.426 751.438 449.755 754.482 446.711C760.887 440.305 763.45 425.25 762.487 399.946C759.924 339.089 737.346 262.703 697.949 181.666C666.721 117.129 638.855 74.525 607.789 43.623C590.972 26.969 578.96 19.6 568.556 19.6C563.913 19.6 510.261 42.497 348.359 113.448L134.232 207.297L150.405 223.633C207.745 281.61 279.806 425.74 309.754 542.485C317.922 574.35 320.965 592.767 322.083 617.116L323.046 637.451L333.613 632.963C339.383 630.401 410.162 599.491 490.718 564.101zM340.182 335.099C345.788 332.055 345.47 317.644 339.701 313.956C336.494 311.875 328.334 312.512 324.491 315.237C321.765 317.155 320.965 319.244 320.965 324.686C320.965 330.129 321.765 332.21 324.491 334.136C328.489 337.016 335.694 337.498 340.182 335.099z M83.15 129.467C76.908 126.749 74.982 124.342 63.615 105.288C41.673 68.772 24.855 31.783 21.338 12.403C18.939 -0.245 21.02 -13.219 27.426 -25.875C33.513 -37.887 48.56 -52.779 61.216 -59.021C71.302 -64.146 72.91 -64.464 88.764 -64.464C104.301 -64.464 106.382 -64.146 115.986 -59.503C141.127 -47.491 157.782 -23.15 157.782 1.991C157.945 22.008 141.29 61.722 113.742 107.206C100.286 129.467 93.718 134.273 83.15 129.467zM105.248 51.481C112.616 37.071 119.821 21.371 121.266 16.565C129.915 -10.502 116.304 -31.481 89.882 -31.636C74.346 -31.636 60.572 -23.15 56.573 -10.975C51.612 3.917 55.937 19.135 75.472 56.443C87.165 78.866 88.764 81.102 90.682 79.185C91.319 78.54 97.887 66.055 105.248 51.481z" />
    <glyph glyph-name="bucket-1"
      unicode="&#x62;&#x75;&#x63;&#x6B;&#x65;&#x74;"
      horiz-adv-x="612" d=" M473.9 733.054C429.861 726.012 384.222 708.231 346.743 683.571C337.938 677.647 330.088 673.004 329.125 673.004C328.163 673.004 319.994 676.366 311.027 680.373C295.49 687.26 293.891 687.741 283.16 686.941C273.711 686.46 269.868 685.342 261.544 680.536C234.323 665.326 205.012 631.372 172.821 577.565C108.291 470.098 58.328 329.329 58.328 255.343C58.328 226.04 63.134 208.741 73.864 198.647C76.745 195.922 164.024 156.852 314.56 90.715C522.428 -0.408 551.893 -12.901 560.38 -13.537C628.279 -18.662 740.381 145.166 782.985 311.875C792.434 348.864 795.633 371.288 795.633 400.754C795.633 429.257 793.552 441.75 786.183 457.923C778.815 474.259 773.209 477.939 724.526 499.082C700.348 509.494 680.324 518.299 680.005 518.462C679.842 518.625 680.968 524.386 682.404 531.436C686.892 551.29 686.411 597.092 681.605 615.99C665.268 680.528 619.948 721.205 550.922 733.054C533.64 735.934 492.317 735.934 473.9 733.054zM551.73 700.226C569.666 696.383 582.959 690.613 599.132 680.046C633.722 657.149 654.065 616.472 654.065 570.351C654.065 556.577 651.666 534.317 650.058 532.399C649.74 532.081 588.401 558.666 513.615 591.494C438.992 624.167 375.254 652.025 372.365 653.306L366.759 655.705L370.766 658.749C378.771 664.836 404.72 678.284 421.856 685.334C466.54 703.425 512.342 708.712 551.73 700.226zM286.857 651.062C292.944 641.776 288.456 597.41 276.926 551.771C262.352 495.084 231.605 416.446 202.14 360.721C163.869 288.652 115.023 224.596 98.369 224.596C92.6 224.596 90.364 230.52 90.364 246.057C90.527 318.925 144.016 466.736 206.791 568.107C230.169 605.578 263.478 645.937 276.934 652.824C283.332 656.186 283.65 656.023 286.857 651.062zM490.718 564.101C571.273 528.866 637.728 499.4 638.373 498.764C639.817 497.319 627.961 473.623 618.512 459.049C571.11 386.025 481.913 333.173 399.114 329.166L378.779 328.203L377.661 332.846C374.454 346.302 364.205 358.95 351.076 365.356C334.421 373.687 318.085 371.28 303.511 358.151C283.013 339.733 281.732 314.429 300.149 294.413C317.448 275.677 342.108 274.078 361.806 290.569C366.294 294.413 367.73 294.576 386.629 294.731C436.919 295.049 493.77 311.867 543.089 341.178C594.815 371.761 636.447 416.927 661.596 469.616C665.603 477.948 669.12 484.99 669.283 485.308C670.246 486.426 751.438 449.755 754.482 446.711C760.887 440.305 763.45 425.25 762.487 399.946C759.924 339.089 737.346 262.703 697.949 181.666C666.721 117.129 638.855 74.525 607.789 43.623C590.972 26.969 578.96 19.6 568.556 19.6C563.913 19.6 510.261 42.497 348.359 113.448L134.232 207.297L150.405 223.633C207.745 281.61 279.806 425.74 309.754 542.485C317.922 574.35 320.965 592.767 322.083 617.116L323.046 637.451L333.613 632.963C339.383 630.401 410.162 599.491 490.718 564.101zM340.182 335.099C345.788 332.055 345.47 317.644 339.701 313.956C336.494 311.875 328.334 312.512 324.491 315.237C321.765 317.155 320.965 319.244 320.965 324.686C320.965 330.129 321.765 332.21 324.491 334.136C328.489 337.016 335.694 337.498 340.182 335.099z M83.15 129.467C76.908 126.749 74.982 124.342 63.615 105.288C41.673 68.772 24.855 31.783 21.338 12.403C18.939 -0.245 21.02 -13.219 27.426 -25.875C33.513 -37.887 48.56 -52.779 61.216 -59.021C71.302 -64.146 72.91 -64.464 88.764 -64.464C104.301 -64.464 106.382 -64.146 115.986 -59.503C141.127 -47.491 157.782 -23.15 157.782 1.991C157.945 22.008 141.29 61.722 113.742 107.206C100.286 129.467 93.718 134.273 83.15 129.467zM105.248 51.481C112.616 37.071 119.821 21.371 121.266 16.565C129.915 -10.502 116.304 -31.481 89.882 -31.636C74.346 -31.636 60.572 -23.15 56.573 -10.975C51.612 3.917 55.937 19.135 75.472 56.443C87.165 78.866 88.764 81.102 90.682 79.185C91.319 78.54 97.887 66.055 105.248 51.481z" />
    <glyph glyph-name="clear"
      unicode="&#xF105;"
      horiz-adv-x="612" d=" M510.812 526.067C481.558 540.996 452.445 542.392 451.22 542.442C450.974 542.454 450.728 542.459 450.483 542.459H404.18C404.183 542.598 404.202 542.732 404.202 542.874C404.202 569.686 391.441 590.964 368.271 602.787C352.133 611.021 336.395 611.909 334.653 611.981C334.409 611.994 334.163 612 333.917 612H278.085C277.839 612 277.593 611.994 277.348 611.983C275.607 611.909 259.868 611.023 243.732 602.789C220.56 590.965 207.8 569.687 207.8 542.876C207.8 542.734 207.817 542.6 207.822 542.461H161.519C161.273 542.461 161.027 542.455 160.782 542.444C159.556 542.393 130.445 540.998 101.189 526.069C72.948 511.659 39.284 481.994 39.284 422.521C39.284 412.94 47.051 405.171 56.634 405.171H71.879L138.966 14.416C140.396 6.088 147.616 0 156.065 0H455.938C464.387 0 471.608 6.088 473.037 14.416L540.124 405.171H555.369C564.95 405.171 572.719 412.939 572.719 422.521C572.718 481.994 539.053 511.659 510.812 526.067zM75.398 439.87C79.618 464.363 93.244 482.761 116.063 494.698C137.335 505.821 159.392 507.586 161.999 507.761H450.004C452.589 507.589 474.084 505.855 495.038 495.161C518.399 483.239 532.328 464.686 536.6 439.871L75.398 439.87L75.398 439.87zM242.5 542.875C242.5 556.441 247.656 565.531 258.726 571.474C267.615 576.247 277.098 577.175 278.612 577.299H333.354C335.09 577.157 344.474 576.197 353.274 571.474C364.344 565.53 369.502 556.441 369.502 542.875C369.502 542.733 369.519 542.599 369.524 542.46H242.48C242.482 542.599 242.5 542.735 242.5 542.875zM441.312 34.699H170.688L107.083 405.171H504.917L441.312 34.699z M306 92.43C315.581 92.43 323.35 100.198 323.35 109.78V354.091C323.35 363.672 315.582 371.441 306 371.441C296.417 371.441 288.65 363.673 288.65 354.091V109.78C288.65 100.198 296.419 92.43 306 92.43z M203.782 108.246C204.583 99.224 212.155 92.43 221.043 92.43C221.556 92.43 222.075 92.453 222.596 92.498C232.141 93.345 239.192 101.771 238.345 111.314L216.658 355.625C215.811 365.17 207.393 372.234 197.841 371.374C188.296 370.527 181.246 362.104 182.093 352.558L203.782 108.246z M389.404 92.498C389.924 92.453 390.444 92.43 390.957 92.43C399.846 92.43 407.419 99.224 408.22 108.246L429.907 352.559C430.754 362.104 423.705 370.527 414.159 371.375C404.615 372.231 396.191 365.171 395.342 355.626L373.655 111.315C372.808 101.771 379.859 93.345 389.404 92.498z" />
    <glyph glyph-name="clear-1"
      unicode="&#x63;&#x6C;&#x65;&#x61;&#x72;"
      horiz-adv-x="612" d=" M510.812 526.067C481.558 540.996 452.445 542.392 451.22 542.442C450.974 542.454 450.728 542.459 450.483 542.459H404.18C404.183 542.598 404.202 542.732 404.202 542.874C404.202 569.686 391.441 590.964 368.271 602.787C352.133 611.021 336.395 611.909 334.653 611.981C334.409 611.994 334.163 612 333.917 612H278.085C277.839 612 277.593 611.994 277.348 611.983C275.607 611.909 259.868 611.023 243.732 602.789C220.56 590.965 207.8 569.687 207.8 542.876C207.8 542.734 207.817 542.6 207.822 542.461H161.519C161.273 542.461 161.027 542.455 160.782 542.444C159.556 542.393 130.445 540.998 101.189 526.069C72.948 511.659 39.284 481.994 39.284 422.521C39.284 412.94 47.051 405.171 56.634 405.171H71.879L138.966 14.416C140.396 6.088 147.616 0 156.065 0H455.938C464.387 0 471.608 6.088 473.037 14.416L540.124 405.171H555.369C564.95 405.171 572.719 412.939 572.719 422.521C572.718 481.994 539.053 511.659 510.812 526.067zM75.398 439.87C79.618 464.363 93.244 482.761 116.063 494.698C137.335 505.821 159.392 507.586 161.999 507.761H450.004C452.589 507.589 474.084 505.855 495.038 495.161C518.399 483.239 532.328 464.686 536.6 439.871L75.398 439.87L75.398 439.87zM242.5 542.875C242.5 556.441 247.656 565.531 258.726 571.474C267.615 576.247 277.098 577.175 278.612 577.299H333.354C335.09 577.157 344.474 576.197 353.274 571.474C364.344 565.53 369.502 556.441 369.502 542.875C369.502 542.733 369.519 542.599 369.524 542.46H242.48C242.482 542.599 242.5 542.735 242.5 542.875zM441.312 34.699H170.688L107.083 405.171H504.917L441.312 34.699z M306 92.43C315.581 92.43 323.35 100.198 323.35 109.78V354.091C323.35 363.672 315.582 371.441 306 371.441C296.417 371.441 288.65 363.673 288.65 354.091V109.78C288.65 100.198 296.419 92.43 306 92.43z M203.782 108.246C204.583 99.224 212.155 92.43 221.043 92.43C221.556 92.43 222.075 92.453 222.596 92.498C232.141 93.345 239.192 101.771 238.345 111.314L216.658 355.625C215.811 365.17 207.393 372.234 197.841 371.374C188.296 370.527 181.246 362.104 182.093 352.558L203.782 108.246z M389.404 92.498C389.924 92.453 390.444 92.43 390.957 92.43C399.846 92.43 407.419 99.224 408.22 108.246L429.907 352.559C430.754 362.104 423.705 370.527 414.159 371.375C404.615 372.231 396.191 365.171 395.342 355.626L373.655 111.315C372.808 101.771 379.859 93.345 389.404 92.498z" />
    <glyph glyph-name="close"
      unicode="&#xF106;"
      horiz-adv-x="612" d=" M66.764 612L0 545.236L239.236 306L0 66.764L66.764 0L306 239.236L545.236 0L612 66.764L372.764 306L612 545.236L545.236 612L306 372.764L66.764 612z" />
    <glyph glyph-name="close-1"
      unicode="&#x63;&#x6C;&#x6F;&#x73;&#x65;"
      horiz-adv-x="612" d=" M66.764 612L0 545.236L239.236 306L0 66.764L66.764 0L306 239.236L545.236 0L612 66.764L372.764 306L612 545.236L545.236 612L306 372.764L66.764 612z" />
    <glyph glyph-name="crop"
      unicode="&#xF107;"
      horiz-adv-x="612" d=" M468 612C448.118 612 432 595.882 432 576V504H180H108V432V180H36C16.118 180 0 163.882 0 144V144C0 124.118 16.118 108 36 108H108V36C108 16.118 124.118 0 144 0V0C163.882 0 180 16.118 180 36V108H504V180V432H576C595.882 432 612 448.118 612 468V468C612 487.882 595.882 504 576 504H504V576C504 595.882 487.882 612 468 612V612zM180 432H432V180H180V432z" />
    <glyph glyph-name="crop-1"
      unicode="&#x63;&#x72;&#x6F;&#x70;"
      horiz-adv-x="612" d=" M468 612C448.118 612 432 595.882 432 576V504H180H108V432V180H36C16.118 180 0 163.882 0 144V144C0 124.118 16.118 108 36 108H108V36C108 16.118 124.118 0 144 0V0C163.882 0 180 16.118 180 36V108H504V180V432H576C595.882 432 612 448.118 612 468V468C612 487.882 595.882 504 576 504H504V576C504 595.882 487.882 612 468 612V612zM180 432H432V180H180V432z" />
    <glyph glyph-name="ellipse"
      unicode="&#xF108;"
      horiz-adv-x="612" d=" M306 612C265.815 612 226.025 604.085 188.899 588.707C151.773 573.329 118.04 550.789 89.625 522.375C61.21 493.96 38.671 460.227 23.293 423.101C7.915 385.975 0 346.185 0 306C0 265.815 7.915 226.025 23.293 188.899C38.671 151.773 61.211 118.04 89.625 89.625C118.04 61.211 151.774 38.67 188.899 23.293C226.025 7.914 265.815 0 306 0C346.185 0 385.975 7.914 423.101 23.293C460.226 38.67 493.96 61.211 522.375 89.625C550.789 118.04 573.329 151.773 588.707 188.899C604.085 226.025 612 265.815 612 306C612 346.185 604.085 385.975 588.707 423.101C573.33 460.227 550.789 493.96 522.375 522.375C493.96 550.789 460.227 573.329 423.101 588.707C385.975 604.085 346.185 612 306 612zM306 539.994C368.058 539.993 427.575 515.339 471.458 471.457C515.34 427.575 539.993 368.058 539.995 306C539.993 243.942 515.34 184.424 471.457 140.542C427.575 96.66 368.058 72.007 306 72.005C243.942 72.007 184.425 96.66 140.542 140.542C96.66 184.424 72.007 243.942 72.006 306C72.007 368.058 96.66 427.575 140.542 471.457C184.425 515.339 243.942 539.993 306 539.994z" />
    <glyph glyph-name="ellipse-1"
      unicode="&#x65;&#x6C;&#x6C;&#x69;&#x70;&#x73;&#x65;"
      horiz-adv-x="612" d=" M306 612C265.815 612 226.025 604.085 188.899 588.707C151.773 573.329 118.04 550.789 89.625 522.375C61.21 493.96 38.671 460.227 23.293 423.101C7.915 385.975 0 346.185 0 306C0 265.815 7.915 226.025 23.293 188.899C38.671 151.773 61.211 118.04 89.625 89.625C118.04 61.211 151.774 38.67 188.899 23.293C226.025 7.914 265.815 0 306 0C346.185 0 385.975 7.914 423.101 23.293C460.226 38.67 493.96 61.211 522.375 89.625C550.789 118.04 573.329 151.773 588.707 188.899C604.085 226.025 612 265.815 612 306C612 346.185 604.085 385.975 588.707 423.101C573.33 460.227 550.789 493.96 522.375 522.375C493.96 550.789 460.227 573.329 423.101 588.707C385.975 604.085 346.185 612 306 612zM306 539.994C368.058 539.993 427.575 515.339 471.458 471.457C515.34 427.575 539.993 368.058 539.995 306C539.993 243.942 515.34 184.424 471.457 140.542C427.575 96.66 368.058 72.007 306 72.005C243.942 72.007 184.425 96.66 140.542 140.542C96.66 184.424 72.007 243.942 72.006 306C72.007 368.058 96.66 427.575 140.542 471.457C184.425 515.339 243.942 539.993 306 539.994z" />
    <glyph glyph-name="eraser"
      unicode="&#xF109;"
      horiz-adv-x="498.13953488372096" d=" M270.047 3.558C275.223 3.557 280.287 5.346 284.621 8.705C288.954 12.064 292.369 16.849 294.45 22.475L495.899 567.676C497.676 572.49 498.415 577.753 498.048 582.991C497.682 588.228 496.222 593.275 493.799 597.674C491.377 602.074 488.069 605.687 484.175 608.188C480.281 610.689 475.924 612 471.496 612H228.092C222.919 611.998 217.857 610.209 213.526 606.85C209.194 603.49 205.781 598.707 203.701 593.084L2.241 47.882C0.464 43.068 -0.275 37.805 0.091 32.568C0.458 27.33 1.918 22.284 4.34 17.885C6.763 13.485 10.07 9.871 13.964 7.37C17.858 4.869 22.216 3.558 26.643 3.558H270.047V3.558zM344.566 315.563H159.346L245.505 548.746H430.724L344.566 315.563V315.563z M104.032 299.995H392.953" />
    <glyph glyph-name="eraser-1"
      unicode="&#x65;&#x72;&#x61;&#x73;&#x65;&#x72;"
      horiz-adv-x="498.13953488372096" d=" M270.047 3.558C275.223 3.557 280.287 5.346 284.621 8.705C288.954 12.064 292.369 16.849 294.45 22.475L495.899 567.676C497.676 572.49 498.415 577.753 498.048 582.991C497.682 588.228 496.222 593.275 493.799 597.674C491.377 602.074 488.069 605.687 484.175 608.188C480.281 610.689 475.924 612 471.496 612H228.092C222.919 611.998 217.857 610.209 213.526 606.85C209.194 603.49 205.781 598.707 203.701 593.084L2.241 47.882C0.464 43.068 -0.275 37.805 0.091 32.568C0.458 27.33 1.918 22.284 4.34 17.885C6.763 13.485 10.07 9.871 13.964 7.37C17.858 4.869 22.216 3.558 26.643 3.558H270.047V3.558zM344.566 315.563H159.346L245.505 548.746H430.724L344.566 315.563V315.563z M104.032 299.995H392.953" />
    <glyph glyph-name="line"
      unicode="&#xF10A;"
      horiz-adv-x="612" d=" M580.514 585.616C565.942 600.187 542.317 600.187 527.745 585.616L26.384 84.254C11.813 69.682 11.813 46.057 26.385 31.485V31.485C40.956 16.914 64.581 16.914 79.152 31.485L580.513 532.847C595.086 547.419 595.086 571.044 580.514 585.616V585.616z" />
    <glyph glyph-name="line-1"
      unicode="&#x6C;&#x69;&#x6E;&#x65;"
      horiz-adv-x="612" d=" M580.514 585.616C565.942 600.187 542.317 600.187 527.745 585.616L26.384 84.254C11.813 69.682 11.813 46.057 26.385 31.485V31.485C40.956 16.914 64.581 16.914 79.152 31.485L580.513 532.847C595.086 547.419 595.086 571.044 580.514 585.616V585.616z" />
    <glyph glyph-name="linked"
      unicode="&#xF10B;"
      horiz-adv-x="262.2857142857143" d=" M93.591 612C85.396 612 77.484 609.008 71.34 603.585L11.375 550.662C4.143 544.279 0 535.097 0 525.45V446.864C0 438.315 3.256 430.087 9.106 423.853L72.916 355.859C73.803 354.914 75.042 354.378 76.339 354.378V354.378C78.931 354.378 81.031 356.479 81.031 359.07V388.004V388.311C81.031 396.762 77.85 404.903 72.119 411.114L49.343 435.798C43.612 442.009 40.43 450.15 40.43 458.601V513.55C40.43 523.197 44.573 532.379 51.806 538.762L84.816 567.896C90.961 573.319 98.873 576.311 107.068 576.311H149.016C157.212 576.311 165.126 573.318 171.27 567.894L204.27 538.762C211.5 532.378 215.643 523.197 215.643 513.553V458.566C215.643 450.136 212.476 442.013 206.77 435.807L184.058 411.105C178.352 404.899 175.185 396.776 175.185 388.346V359.069C175.185 356.478 177.286 354.378 179.877 354.378V354.378C181.175 354.378 182.414 354.914 183.301 355.861L247 423.858C252.837 430.089 256.086 438.308 256.086 446.847V525.45C256.086 535.097 251.943 544.279 244.711 550.662L184.746 603.585C178.602 609.008 170.689 612 162.495 612H93.591zM128.108 442.042C115.283 442.042 104.885 431.645 104.885 418.819V200.234C104.885 187.409 115.283 177.011 128.108 177.011V177.011C140.934 177.011 151.332 187.409 151.332 200.234V418.819C151.332 431.645 140.934 442.042 128.108 442.042V442.042zM76.339 260.224C75.042 260.224 73.803 259.687 72.916 258.741L9.106 190.748C3.256 184.513 0 176.286 0 167.736V89.15C0 79.504 4.143 70.321 11.375 63.939L71.34 11.015C77.484 5.593 85.396 2.601 93.591 2.601H162.495C170.689 2.601 178.602 5.593 184.746 11.015L244.711 63.939C251.943 70.321 256.086 79.504 256.086 89.15V167.754C256.086 176.292 252.837 184.511 247 190.743L183.301 258.739C182.414 259.686 181.175 260.224 179.877 260.224V260.224C177.286 260.224 175.185 258.123 175.185 255.532V226.256C175.185 217.825 178.352 209.702 184.058 203.497L206.77 178.793C212.476 172.587 215.643 164.465 215.643 156.034V101.048C215.643 91.403 211.5 82.223 204.27 75.84L171.27 46.707C165.126 41.283 157.212 38.29 149.016 38.29H107.068C98.873 38.29 90.961 41.282 84.816 46.704L51.806 75.839C44.573 82.223 40.43 91.404 40.43 101.051V156C40.43 164.451 43.612 172.592 49.343 178.803L72.119 203.487C77.85 209.698 81.031 217.839 81.031 226.29V226.597V255.53C81.031 258.122 78.931 260.224 76.339 260.224V260.224z" />
    <glyph glyph-name="linked-1"
      unicode="&#x6C;&#x69;&#x6E;&#x6B;&#x65;&#x64;"
      horiz-adv-x="262.2857142857143" d=" M93.591 612C85.396 612 77.484 609.008 71.34 603.585L11.375 550.662C4.143 544.279 0 535.097 0 525.45V446.864C0 438.315 3.256 430.087 9.106 423.853L72.916 355.859C73.803 354.914 75.042 354.378 76.339 354.378V354.378C78.931 354.378 81.031 356.479 81.031 359.07V388.004V388.311C81.031 396.762 77.85 404.903 72.119 411.114L49.343 435.798C43.612 442.009 40.43 450.15 40.43 458.601V513.55C40.43 523.197 44.573 532.379 51.806 538.762L84.816 567.896C90.961 573.319 98.873 576.311 107.068 576.311H149.016C157.212 576.311 165.126 573.318 171.27 567.894L204.27 538.762C211.5 532.378 215.643 523.197 215.643 513.553V458.566C215.643 450.136 212.476 442.013 206.77 435.807L184.058 411.105C178.352 404.899 175.185 396.776 175.185 388.346V359.069C175.185 356.478 177.286 354.378 179.877 354.378V354.378C181.175 354.378 182.414 354.914 183.301 355.861L247 423.858C252.837 430.089 256.086 438.308 256.086 446.847V525.45C256.086 535.097 251.943 544.279 244.711 550.662L184.746 603.585C178.602 609.008 170.689 612 162.495 612H93.591zM128.108 442.042C115.283 442.042 104.885 431.645 104.885 418.819V200.234C104.885 187.409 115.283 177.011 128.108 177.011V177.011C140.934 177.011 151.332 187.409 151.332 200.234V418.819C151.332 431.645 140.934 442.042 128.108 442.042V442.042zM76.339 260.224C75.042 260.224 73.803 259.687 72.916 258.741L9.106 190.748C3.256 184.513 0 176.286 0 167.736V89.15C0 79.504 4.143 70.321 11.375 63.939L71.34 11.015C77.484 5.593 85.396 2.601 93.591 2.601H162.495C170.689 2.601 178.602 5.593 184.746 11.015L244.711 63.939C251.943 70.321 256.086 79.504 256.086 89.15V167.754C256.086 176.292 252.837 184.511 247 190.743L183.301 258.739C182.414 259.686 181.175 260.224 179.877 260.224V260.224C177.286 260.224 175.185 258.123 175.185 255.532V226.256C175.185 217.825 178.352 209.702 184.058 203.497L206.77 178.793C212.476 172.587 215.643 164.465 215.643 156.034V101.048C215.643 91.403 211.5 82.223 204.27 75.84L171.27 46.707C165.126 41.283 157.212 38.29 149.016 38.29H107.068C98.873 38.29 90.961 41.282 84.816 46.704L51.806 75.839C44.573 82.223 40.43 91.404 40.43 101.051V156C40.43 164.451 43.612 172.592 49.343 178.803L72.119 203.487C77.85 209.698 81.031 217.839 81.031 226.29V226.597V255.53C81.031 258.122 78.931 260.224 76.339 260.224V260.224z" />
    <glyph glyph-name="loading"
      unicode="&#xF10C;"
      horiz-adv-x="625.0212765957447" d=" M559.915 231.128C595.872 231.128 625.021 260.277 625.021 296.234C625.021 332.191 595.872 361.34 559.915 361.34C523.958 361.34 494.809 332.191 494.809 296.234C494.809 260.277 523.958 231.128 559.915 231.128z M483.638 421.787C515.999 421.787 542.234 448.021 542.234 480.383C542.234 512.745 515.999 538.979 483.638 538.979C451.276 538.979 425.042 512.745 425.042 480.383C425.042 448.021 451.276 421.787 483.638 421.787z M299.489 507.83C328.255 507.83 351.574 531.149 351.574 559.915C351.574 588.681 328.255 612 299.489 612C270.723 612 247.404 588.681 247.404 559.915C247.404 531.149 270.723 507.83 299.489 507.83z M115.341 434.808C140.511 434.808 160.915 455.213 160.915 480.383C160.915 505.553 140.511 525.957 115.341 525.957C90.17 525.957 69.766 505.553 69.766 480.383C69.766 455.213 90.17 434.808 115.341 434.808z M39.064 257.17C60.638 257.17 78.128 274.66 78.128 296.234C78.128 317.808 60.638 335.298 39.064 335.298C17.489 335.298 0 317.808 0 296.234C0 274.66 17.489 257.17 39.064 257.17z M115.341 79.532C133.32 79.532 147.894 94.107 147.894 112.085C147.894 130.064 133.32 144.638 115.341 144.638C97.362 144.638 82.787 130.064 82.787 112.085C82.787 94.107 97.362 79.532 115.341 79.532z M299.489 3.255C317.468 3.255 332.043 17.83 332.043 35.809C332.043 53.787 317.468 68.362 299.489 68.362C281.511 68.362 266.936 53.787 266.936 35.809C266.936 17.83 281.511 3.255 299.489 3.255z M483.638 79.532C501.617 79.532 516.191 94.107 516.191 112.085C516.191 130.064 501.617 144.638 483.638 144.638C465.659 144.638 451.085 130.064 451.085 112.085C451.085 94.107 465.659 79.532 483.638 79.532z" />
    <glyph glyph-name="loading-1"
      unicode="&#x6C;&#x6F;&#x61;&#x64;&#x69;&#x6E;&#x67;"
      horiz-adv-x="625.0212765957447" d=" M559.915 231.128C595.872 231.128 625.021 260.277 625.021 296.234C625.021 332.191 595.872 361.34 559.915 361.34C523.958 361.34 494.809 332.191 494.809 296.234C494.809 260.277 523.958 231.128 559.915 231.128z M483.638 421.787C515.999 421.787 542.234 448.021 542.234 480.383C542.234 512.745 515.999 538.979 483.638 538.979C451.276 538.979 425.042 512.745 425.042 480.383C425.042 448.021 451.276 421.787 483.638 421.787z M299.489 507.83C328.255 507.83 351.574 531.149 351.574 559.915C351.574 588.681 328.255 612 299.489 612C270.723 612 247.404 588.681 247.404 559.915C247.404 531.149 270.723 507.83 299.489 507.83z M115.341 434.808C140.511 434.808 160.915 455.213 160.915 480.383C160.915 505.553 140.511 525.957 115.341 525.957C90.17 525.957 69.766 505.553 69.766 480.383C69.766 455.213 90.17 434.808 115.341 434.808z M39.064 257.17C60.638 257.17 78.128 274.66 78.128 296.234C78.128 317.808 60.638 335.298 39.064 335.298C17.489 335.298 0 317.808 0 296.234C0 274.66 17.489 257.17 39.064 257.17z M115.341 79.532C133.32 79.532 147.894 94.107 147.894 112.085C147.894 130.064 133.32 144.638 115.341 144.638C97.362 144.638 82.787 130.064 82.787 112.085C82.787 94.107 97.362 79.532 115.341 79.532z M299.489 3.255C317.468 3.255 332.043 17.83 332.043 35.809C332.043 53.787 317.468 68.362 299.489 68.362C281.511 68.362 266.936 53.787 266.936 35.809C266.936 17.83 281.511 3.255 299.489 3.255z M483.638 79.532C501.617 79.532 516.191 94.107 516.191 112.085C516.191 130.064 501.617 144.638 483.638 144.638C465.659 144.638 451.085 130.064 451.085 112.085C451.085 94.107 465.659 79.532 483.638 79.532z" />
    <glyph glyph-name="mirror"
      unicode="&#xF10D;"
      horiz-adv-x="511.2" d=" M216 612L0 0H216V612zM295.2 612V0H511.2L295.2 612zM327.6 421.2L457.2 32.4H327.6V421.2zM349.2 291.6V54H428.4L349.2 291.6z" />
    <glyph glyph-name="mirror-1"
      unicode="&#x6D;&#x69;&#x72;&#x72;&#x6F;&#x72;"
      horiz-adv-x="511.2" d=" M216 612L0 0H216V612zM295.2 612V0H511.2L295.2 612zM327.6 421.2L457.2 32.4H327.6V421.2zM349.2 291.6V54H428.4L349.2 291.6z" />
    <glyph glyph-name="open"
      unicode="&#xF10E;"
      horiz-adv-x="685.44" d=" M39.748 612L0 537.364V126.874L119.26 462.728H540.68V537.364H278.285L238.536 612H39.748zM663.556 333.164C673.382 359.805 653.665 388.087 625.27 388.082L208.923 388.011C192.036 388.008 176.895 377.602 170.841 361.837L53.204 55.502C42.943 28.783 62.665 0.08 91.285 0.075L512.236 0.007C529.327 0.005 544.608 10.655 550.522 26.69L663.556 333.164z" />
    <glyph glyph-name="open-1"
      unicode="&#x6F;&#x70;&#x65;&#x6E;"
      horiz-adv-x="685.44" d=" M39.748 612L0 537.364V126.874L119.26 462.728H540.68V537.364H278.285L238.536 612H39.748zM663.556 333.164C673.382 359.805 653.665 388.087 625.27 388.082L208.923 388.011C192.036 388.008 176.895 377.602 170.841 361.837L53.204 55.502C42.943 28.783 62.665 0.08 91.285 0.075L512.236 0.007C529.327 0.005 544.608 10.655 550.522 26.69L663.556 333.164z" />
    <glyph glyph-name="painterro0"
      unicode="&#xF10F;"
      horiz-adv-x="625.0212765957447" d=" M280.828 605.489L267.807 286.468H358.956L345.934 605.489H280.828zM254.785 266.936L248.326 176.499C248.326 176.499 267.857 176.499 287.389 163.478C306.921 150.457 313.342 136.354 313.381 136.723C313.381 136.723 319.943 150.457 339.474 163.478C359.006 176.499 378.538 176.499 378.538 176.499L371.977 266.936H254.785zM245.261 159.002C186.277 160.44 139.868 94.945 98.53 78.128C61.613 64.496 33.422 84.638 37.213 104.17C39.932 110.681 39.696 119.039 65.977 123.702C46.445 133.722 23.945 130.212 13.892 114.483C-21.652 65.918 77.824 2.953 170.147 6.511C274.041 14.245 364.91 111.291 263.979 156.281C257.6 157.99 251.363 158.853 245.261 159.002zM380.891 157.858C374.789 157.708 368.552 156.846 362.172 155.136C261.241 110.147 352.111 13.1 456.004 5.366C548.327 1.809 647.803 64.774 612.26 113.338C602.206 129.068 579.707 132.577 560.175 122.558C586.456 117.894 586.219 109.536 588.939 103.026C592.73 83.494 564.539 63.352 527.621 76.983C486.283 93.801 439.874 159.295 380.891 157.858z" />
    <glyph glyph-name="painterro0-1"
      unicode="&#x70;&#x61;&#x69;&#x6E;&#x74;&#x65;&#x72;&#x72;&#x6F;&#x30;"
      horiz-adv-x="625.0212765957447" d=" M280.828 605.489L267.807 286.468H358.956L345.934 605.489H280.828zM254.785 266.936L248.326 176.499C248.326 176.499 267.857 176.499 287.389 163.478C306.921 150.457 313.342 136.354 313.381 136.723C313.381 136.723 319.943 150.457 339.474 163.478C359.006 176.499 378.538 176.499 378.538 176.499L371.977 266.936H254.785zM245.261 159.002C186.277 160.44 139.868 94.945 98.53 78.128C61.613 64.496 33.422 84.638 37.213 104.17C39.932 110.681 39.696 119.039 65.977 123.702C46.445 133.722 23.945 130.212 13.892 114.483C-21.652 65.918 77.824 2.953 170.147 6.511C274.041 14.245 364.91 111.291 263.979 156.281C257.6 157.99 251.363 158.853 245.261 159.002zM380.891 157.858C374.789 157.708 368.552 156.846 362.172 155.136C261.241 110.147 352.111 13.1 456.004 5.366C548.327 1.809 647.803 64.774 612.26 113.338C602.206 129.068 579.707 132.577 560.175 122.558C586.456 117.894 586.219 109.536 588.939 103.026C592.73 83.494 564.539 63.352 527.621 76.983C486.283 93.801 439.874 159.295 380.891 157.858z" />
    <glyph glyph-name="paste_extend_down"
      unicode="&#xF110;"
      horiz-adv-x="598.6956521739131" d=" M598.696 585.391C598.696 600.087 586.783 612 572.087 612L25.487 612C11.411 612 0 600.589 0 586.513V366.764C0 352.068 11.913 340.155 26.609 340.155L572.087 340.155C586.783 340.155 598.696 352.068 598.696 366.764V585.391zM522.169 561.013C536.865 561.013 548.778 549.1 548.778 534.405V417.75C548.778 403.055 536.865 391.141 522.169 391.141L76.526 391.141C61.83 391.141 49.917 403.055 49.917 417.75V534.405C49.917 549.1 61.83 561.013 76.526 561.013L522.169 561.013zM533.629 200.642L390.594 200.642L390.594 306.053L208.101 306.053V280.553L208.101 200.642H64.911L299.634 0L533.629 200.642zM396.505 149.655L299.582 66.544L202.359 149.655H258.019L258.019 255.067H340.676L340.676 149.655L396.505 149.655z" />
    <glyph glyph-name="paste_extend_down-1"
      unicode="&#x70;&#x61;&#x73;&#x74;&#x65;&#x5F;&#x65;&#x78;&#x74;&#x65;&#x6E;&#x64;&#x5F;&#x64;&#x6F;&#x77;&#x6E;"
      horiz-adv-x="598.6956521739131" d=" M598.696 585.391C598.696 600.087 586.783 612 572.087 612L25.487 612C11.411 612 0 600.589 0 586.513V366.764C0 352.068 11.913 340.155 26.609 340.155L572.087 340.155C586.783 340.155 598.696 352.068 598.696 366.764V585.391zM522.169 561.013C536.865 561.013 548.778 549.1 548.778 534.405V417.75C548.778 403.055 536.865 391.141 522.169 391.141L76.526 391.141C61.83 391.141 49.917 403.055 49.917 417.75V534.405C49.917 549.1 61.83 561.013 76.526 561.013L522.169 561.013zM533.629 200.642L390.594 200.642L390.594 306.053L208.101 306.053V280.553L208.101 200.642H64.911L299.634 0L533.629 200.642zM396.505 149.655L299.582 66.544L202.359 149.655H258.019L258.019 255.067H340.676L340.676 149.655L396.505 149.655z" />
    <glyph glyph-name="paste_extend_left"
      unicode="&#xF111;"
      horiz-adv-x="625.6" d=" M598.4 0C613.423 0 625.6 12.177 625.6 27.2L625.6 585.947C625.6 600.336 613.935 612 599.546 612H374.914C359.891 612 347.714 599.822 347.714 584.8L347.714 27.2C347.714 12.177 359.891 0 374.914 0H598.4zM573.481 78.227C573.481 63.205 561.302 51.027 546.281 51.027H427.033C412.012 51.027 399.833 63.205 399.833 78.227L399.833 533.773C399.833 548.796 412.012 560.973 427.033 560.973H546.281C561.302 560.973 573.481 548.796 573.481 533.773L573.481 78.227zM205.1 66.512L205.1 212.726H312.854V399.274H286.787H205.1V545.647L0 305.708L205.1 66.512zM152.981 206.683L68.023 305.761L152.981 405.144L152.981 348.247H260.735V263.753H152.981V206.683z" />
    <glyph glyph-name="paste_extend_left-1"
      unicode="&#x70;&#x61;&#x73;&#x74;&#x65;&#x5F;&#x65;&#x78;&#x74;&#x65;&#x6E;&#x64;&#x5F;&#x6C;&#x65;&#x66;&#x74;"
      horiz-adv-x="625.6" d=" M598.4 0C613.423 0 625.6 12.177 625.6 27.2L625.6 585.947C625.6 600.336 613.935 612 599.546 612H374.914C359.891 612 347.714 599.822 347.714 584.8L347.714 27.2C347.714 12.177 359.891 0 374.914 0H598.4zM573.481 78.227C573.481 63.205 561.302 51.027 546.281 51.027H427.033C412.012 51.027 399.833 63.205 399.833 78.227L399.833 533.773C399.833 548.796 412.012 560.973 427.033 560.973H546.281C561.302 560.973 573.481 548.796 573.481 533.773L573.481 78.227zM205.1 66.512L205.1 212.726H312.854V399.274H286.787H205.1V545.647L0 305.708L205.1 66.512zM152.981 206.683L68.023 305.761L152.981 405.144L152.981 348.247H260.735V263.753H152.981V206.683z" />
    <glyph glyph-name="paste_extend_right"
      unicode="&#xF112;"
      horiz-adv-x="612" d=" M27.2 612C12.178 612 0 599.822 0 584.8V25.486C0 11.41 11.411 0 25.487 0H244.645C259.668 0 271.845 12.177 271.845 27.2V584.8C271.845 599.822 259.668 612 244.645 612H27.2zM50.987 533.773C50.987 548.796 63.165 560.973 78.187 560.973H193.659C208.681 560.973 220.859 548.796 220.859 533.773V78.227C220.859 63.205 208.681 51.027 193.659 51.027H78.187C63.165 51.027 50.987 63.205 50.987 78.227V533.773zM411.358 545.488V399.274H305.947V212.726H331.447H411.358V66.353L612 306.292L411.358 545.488zM462.346 405.317L545.455 306.239L462.346 206.856V263.753H356.933V348.247H462.346V405.317z" />
    <glyph glyph-name="paste_extend_right-1"
      unicode="&#x70;&#x61;&#x73;&#x74;&#x65;&#x5F;&#x65;&#x78;&#x74;&#x65;&#x6E;&#x64;&#x5F;&#x72;&#x69;&#x67;&#x68;&#x74;"
      horiz-adv-x="612" d=" M27.2 612C12.178 612 0 599.822 0 584.8V25.486C0 11.41 11.411 0 25.487 0H244.645C259.668 0 271.845 12.177 271.845 27.2V584.8C271.845 599.822 259.668 612 244.645 612H27.2zM50.987 533.773C50.987 548.796 63.165 560.973 78.187 560.973H193.659C208.681 560.973 220.859 548.796 220.859 533.773V78.227C220.859 63.205 208.681 51.027 193.659 51.027H78.187C63.165 51.027 50.987 63.205 50.987 78.227V533.773zM411.358 545.488V399.274H305.947V212.726H331.447H411.358V66.353L612 306.292L411.358 545.488zM462.346 405.317L545.455 306.239L462.346 206.856V263.753H356.933V348.247H462.346V405.317z" />
    <glyph glyph-name="paste_extend_top"
      unicode="&#xF113;"
      horiz-adv-x="598.6956521739131" d=" M0 26.609C0 11.913 11.913 0 26.609 0H573.209C587.285 0 598.696 11.411 598.696 25.487V245.236C598.696 259.932 586.783 271.845 572.087 271.845L26.609 271.845C11.913 271.845 0 259.932 0 245.236L0 26.609zM76.526 50.986C61.83 50.986 49.917 62.9 49.917 77.595L49.917 194.25C49.917 208.945 61.83 220.859 76.526 220.859L522.169 220.859C536.865 220.859 548.778 208.945 548.778 194.25V77.595C548.778 62.9 536.865 50.986 522.169 50.986H76.526zM65.067 411.358H208.101V305.947L390.594 305.947V331.447L390.594 411.358H533.785L299.062 612L65.067 411.358zM202.19 462.345L299.114 545.456L396.337 462.345H340.676L340.676 356.933H258.019L258.019 462.345H202.19z" />
    <glyph glyph-name="paste_extend_top-1"
      unicode="&#x70;&#x61;&#x73;&#x74;&#x65;&#x5F;&#x65;&#x78;&#x74;&#x65;&#x6E;&#x64;&#x5F;&#x74;&#x6F;&#x70;"
      horiz-adv-x="598.6956521739131" d=" M0 26.609C0 11.913 11.913 0 26.609 0H573.209C587.285 0 598.696 11.411 598.696 25.487V245.236C598.696 259.932 586.783 271.845 572.087 271.845L26.609 271.845C11.913 271.845 0 259.932 0 245.236L0 26.609zM76.526 50.986C61.83 50.986 49.917 62.9 49.917 77.595L49.917 194.25C49.917 208.945 61.83 220.859 76.526 220.859L522.169 220.859C536.865 220.859 548.778 208.945 548.778 194.25V77.595C548.778 62.9 536.865 50.986 522.169 50.986H76.526zM65.067 411.358H208.101V305.947L390.594 305.947V331.447L390.594 411.358H533.785L299.062 612L65.067 411.358zM202.19 462.345L299.114 545.456L396.337 462.345H340.676L340.676 356.933H258.019L258.019 462.345H202.19z" />
    <glyph glyph-name="paste_fit"
      unicode="&#xF114;"
      horiz-adv-x="612" d=" M13.6 612C6.089 612 0 605.911 0 598.4V586.739V13.6C0 6.089 6.089 0 13.6 0H598.4C605.911 0 612 6.089 612 13.6V598.4C612 605.911 605.911 612 598.4 612H13.6zM50.522 547.878C50.522 555.389 56.611 561.478 64.122 561.478H547.878C555.389 561.478 561.478 555.389 561.478 547.878V64.122C561.478 56.611 555.389 50.522 547.878 50.522H64.122C56.611 50.522 50.522 56.611 50.522 64.122V547.878zM510 510L328.883 466.185L420.405 443.302L306 374.651L374.638 306L443.289 420.418L466.172 328.883L510 510zM238.638 306L171.261 193.733L148.803 283.542L102 102L283.542 148.817L193.72 171.275L306 238.638L238.638 306z" />
    <glyph glyph-name="paste_fit-1"
      unicode="&#x70;&#x61;&#x73;&#x74;&#x65;&#x5F;&#x66;&#x69;&#x74;"
      horiz-adv-x="612" d=" M13.6 612C6.089 612 0 605.911 0 598.4V586.739V13.6C0 6.089 6.089 0 13.6 0H598.4C605.911 0 612 6.089 612 13.6V598.4C612 605.911 605.911 612 598.4 612H13.6zM50.522 547.878C50.522 555.389 56.611 561.478 64.122 561.478H547.878C555.389 561.478 561.478 555.389 561.478 547.878V64.122C561.478 56.611 555.389 50.522 547.878 50.522H64.122C56.611 50.522 50.522 56.611 50.522 64.122V547.878zM510 510L328.883 466.185L420.405 443.302L306 374.651L374.638 306L443.289 420.418L466.172 328.883L510 510zM238.638 306L171.261 193.733L148.803 283.542L102 102L283.542 148.817L193.72 171.275L306 238.638L238.638 306z" />
    <glyph glyph-name="paste_over"
      unicode="&#xF115;"
      horiz-adv-x="612" d=" M306 612L204 521.329H255V476H357V521.329H408L306 612zM170 442V170H190.201H413.923H442V442H170zM90.671 408L0 306L90.671 204V255H136V357H90.671V408zM521.329 408V357H476V255H521.329V204L612 306L521.329 408zM210.389 401.598H401.611V210.389H210.389V401.598zM255 136V90.671H204L306 0L408 90.671H357V136H255z" />
    <glyph glyph-name="paste_over-1"
      unicode="&#x70;&#x61;&#x73;&#x74;&#x65;&#x5F;&#x6F;&#x76;&#x65;&#x72;"
      horiz-adv-x="612" d=" M306 612L204 521.329H255V476H357V521.329H408L306 612zM170 442V170H190.201H413.923H442V442H170zM90.671 408L0 306L90.671 204V255H136V357H90.671V408zM521.329 408V357H476V255H521.329V204L612 306L521.329 408zM210.389 401.598H401.611V210.389H210.389V401.598zM255 136V90.671H204L306 0L408 90.671H357V136H255z" />
    <glyph glyph-name="pipette"
      unicode="&#xF116;"
      horiz-adv-x="612" d=" M520.19 612C496.744 612 473.296 603.027 455.33 585.061L330.031 459.747L323.711 466.067C303.993 485.784 272.247 485.784 252.53 466.067C232.813 446.35 232.813 414.604 252.53 394.886L277.333 370.069L19.265 112.001C-6.422 86.313 -6.422 44.946 19.265 19.26C44.951 -6.427 86.32 -6.427 112.006 19.26L370.074 277.328L394.877 252.525C414.594 232.808 446.355 232.808 466.072 252.525C485.79 272.242 485.79 303.988 466.072 323.706L459.753 330.026L585.051 455.324C620.983 491.257 620.983 549.128 585.051 585.061C567.085 603.027 543.637 612 520.19 612zM308.979 340.724L340.729 308.974L306.932 275.176C306.81 275.048 306.728 274.898 306.603 274.773L85.978 54.163C77.164 45.348 62.982 45.348 54.168 54.163C45.354 62.976 45.354 77.159 54.168 85.973L274.778 306.597C274.904 306.723 275.053 306.804 275.181 306.926L308.979 340.724z" />
    <glyph glyph-name="pipette-1"
      unicode="&#x70;&#x69;&#x70;&#x65;&#x74;&#x74;&#x65;"
      horiz-adv-x="612" d=" M520.19 612C496.744 612 473.296 603.027 455.33 585.061L330.031 459.747L323.711 466.067C303.993 485.784 272.247 485.784 252.53 466.067C232.813 446.35 232.813 414.604 252.53 394.886L277.333 370.069L19.265 112.001C-6.422 86.313 -6.422 44.946 19.265 19.26C44.951 -6.427 86.32 -6.427 112.006 19.26L370.074 277.328L394.877 252.525C414.594 232.808 446.355 232.808 466.072 252.525C485.79 272.242 485.79 303.988 466.072 323.706L459.753 330.026L585.051 455.324C620.983 491.257 620.983 549.128 585.051 585.061C567.085 603.027 543.637 612 520.19 612zM308.979 340.724L340.729 308.974L306.932 275.176C306.81 275.048 306.728 274.898 306.603 274.773L85.978 54.163C77.164 45.348 62.982 45.348 54.168 54.163C45.354 62.976 45.354 77.159 54.168 85.973L274.778 306.597C274.904 306.723 275.053 306.804 275.181 306.926L308.979 340.724z" />
    <glyph glyph-name="pixelize"
      unicode="&#xF117;"
      horiz-adv-x="486.24657534246575" d=" M25.151 612C11.26 612 0 600.74 0 586.849V528.164C0 514.274 11.26 503.014 25.151 503.014H83.836C97.726 503.014 108.986 514.274 108.986 528.164V586.849C108.986 600.74 97.726 612 83.836 612H25.151zM150.904 612C137.013 612 125.753 600.74 125.753 586.849V528.164C125.753 514.274 137.013 503.014 150.904 503.014H209.589C223.48 503.014 234.74 514.274 234.74 528.164V586.849C234.74 600.74 223.48 612 209.589 612H150.904zM276.658 612C262.767 612 251.507 600.74 251.507 586.849V528.164C251.507 514.274 262.767 503.014 276.658 503.014H335.342C349.233 503.014 360.493 514.274 360.493 528.164V528.164V544.932V586.849C360.493 600.74 349.233 612 335.342 612H276.658zM402.411 528.164C388.52 528.164 377.26 516.904 377.26 503.014V444.329C377.26 430.438 388.52 419.178 402.411 419.178H461.096C474.987 419.178 486.247 430.438 486.247 444.329V503.014C486.247 516.904 474.987 528.164 461.096 528.164H402.411zM25.151 486.247C11.26 486.247 0 474.987 0 461.096V402.411C0 388.52 11.26 377.26 25.151 377.26H83.836C97.726 377.26 108.986 388.52 108.986 402.411V461.096C108.986 474.987 97.726 486.247 83.836 486.247H25.151zM402.411 402.411C388.52 402.411 377.26 391.151 377.26 377.26V318.575C377.26 304.685 388.52 293.425 402.411 293.425H461.096C474.987 293.425 486.247 304.685 486.247 318.575V377.26C486.247 391.151 474.987 402.411 461.096 402.411H402.411zM25.151 360.493C11.26 360.493 0 349.233 0 335.342V276.658C0 262.767 11.26 251.507 25.151 251.507H83.836C97.726 251.507 108.986 262.767 108.986 276.658V318.575V335.342V335.342C108.986 349.233 97.726 360.493 83.836 360.493H25.151zM150.904 318.575C137.013 318.575 125.753 307.315 125.753 293.425V234.74C125.753 220.849 137.013 209.589 150.904 209.589H209.589C223.48 209.589 234.74 220.849 234.74 234.74V293.425C234.74 307.315 223.48 318.575 209.589 318.575H150.904zM276.658 318.575C262.767 318.575 251.507 307.315 251.507 293.425V234.74C251.507 220.849 262.767 209.589 276.658 209.589H335.342C349.233 209.589 360.493 220.849 360.493 234.74V276.658V293.425V293.425C360.493 307.315 349.233 318.575 335.342 318.575H276.658zM25.151 234.74C11.26 234.74 0 223.48 0 209.589V150.904C0 137.013 11.26 125.753 25.151 125.753H83.836C97.726 125.753 108.986 137.013 108.986 150.904V209.589C108.986 223.48 97.726 234.74 83.836 234.74H25.151zM25.151 108.986C11.26 108.986 0 97.726 0 83.836V25.151C0 11.26 11.26 0 25.151 0H83.836C97.726 0 108.986 11.26 108.986 25.151V83.836C108.986 97.726 97.726 108.986 83.836 108.986H25.151z" />
    <glyph glyph-name="pixelize-1"
      unicode="&#x70;&#x69;&#x78;&#x65;&#x6C;&#x69;&#x7A;&#x65;"
      horiz-adv-x="486.24657534246575" d=" M25.151 612C11.26 612 0 600.74 0 586.849V528.164C0 514.274 11.26 503.014 25.151 503.014H83.836C97.726 503.014 108.986 514.274 108.986 528.164V586.849C108.986 600.74 97.726 612 83.836 612H25.151zM150.904 612C137.013 612 125.753 600.74 125.753 586.849V528.164C125.753 514.274 137.013 503.014 150.904 503.014H209.589C223.48 503.014 234.74 514.274 234.74 528.164V586.849C234.74 600.74 223.48 612 209.589 612H150.904zM276.658 612C262.767 612 251.507 600.74 251.507 586.849V528.164C251.507 514.274 262.767 503.014 276.658 503.014H335.342C349.233 503.014 360.493 514.274 360.493 528.164V528.164V544.932V586.849C360.493 600.74 349.233 612 335.342 612H276.658zM402.411 528.164C388.52 528.164 377.26 516.904 377.26 503.014V444.329C377.26 430.438 388.52 419.178 402.411 419.178H461.096C474.987 419.178 486.247 430.438 486.247 444.329V503.014C486.247 516.904 474.987 528.164 461.096 528.164H402.411zM25.151 486.247C11.26 486.247 0 474.987 0 461.096V402.411C0 388.52 11.26 377.26 25.151 377.26H83.836C97.726 377.26 108.986 388.52 108.986 402.411V461.096C108.986 474.987 97.726 486.247 83.836 486.247H25.151zM402.411 402.411C388.52 402.411 377.26 391.151 377.26 377.26V318.575C377.26 304.685 388.52 293.425 402.411 293.425H461.096C474.987 293.425 486.247 304.685 486.247 318.575V377.26C486.247 391.151 474.987 402.411 461.096 402.411H402.411zM25.151 360.493C11.26 360.493 0 349.233 0 335.342V276.658C0 262.767 11.26 251.507 25.151 251.507H83.836C97.726 251.507 108.986 262.767 108.986 276.658V318.575V335.342V335.342C108.986 349.233 97.726 360.493 83.836 360.493H25.151zM150.904 318.575C137.013 318.575 125.753 307.315 125.753 293.425V234.74C125.753 220.849 137.013 209.589 150.904 209.589H209.589C223.48 209.589 234.74 220.849 234.74 234.74V293.425C234.74 307.315 223.48 318.575 209.589 318.575H150.904zM276.658 318.575C262.767 318.575 251.507 307.315 251.507 293.425V234.74C251.507 220.849 262.767 209.589 276.658 209.589H335.342C349.233 209.589 360.493 220.849 360.493 234.74V276.658V293.425V293.425C360.493 307.315 349.233 318.575 335.342 318.575H276.658zM25.151 234.74C11.26 234.74 0 223.48 0 209.589V150.904C0 137.013 11.26 125.753 25.151 125.753H83.836C97.726 125.753 108.986 137.013 108.986 150.904V209.589C108.986 223.48 97.726 234.74 83.836 234.74H25.151zM25.151 108.986C11.26 108.986 0 97.726 0 83.836V25.151C0 11.26 11.26 0 25.151 0H83.836C97.726 0 108.986 11.26 108.986 25.151V83.836C108.986 97.726 97.726 108.986 83.836 108.986H25.151z" />
    <glyph glyph-name="rect"
      unicode="&#xF118;"
      horiz-adv-x="706.1538461538462" d=" M47.077 612C21.077 612 0 590.923 0 564.923V47.077C0 21.077 21.077 0 47.077 0H659.077C685.077 0 706.154 21.077 706.154 47.077V564.923C706.154 590.923 685.077 612 659.077 612H47.077zM75.323 527.262H630.831V84.738H75.323V527.262z" />
    <glyph glyph-name="rect-1"
      unicode="&#x72;&#x65;&#x63;&#x74;"
      horiz-adv-x="706.1538461538462" d=" M47.077 612C21.077 612 0 590.923 0 564.923V47.077C0 21.077 21.077 0 47.077 0H659.077C685.077 0 706.154 21.077 706.154 47.077V564.923C706.154 590.923 685.077 612 659.077 612H47.077zM75.323 527.262H630.831V84.738H75.323V527.262z" />
    <glyph glyph-name="redo"
      unicode="&#xF119;"
      horiz-adv-x="596.8888888888889" d=" M346.764 612L595.432 402.422L346.764 196.444L382.288 347.556C297.85 353.798 233.906 338.687 169.964 293.354C84.706 232.909 42.077 112.02 27.868 6.242C13.658 89.354 -43.18 270.687 63.392 384.02C129.999 454.854 210.483 469.61 278.825 468.872C319.83 468.43 355.645 463.722 382.288 460.889L346.764 612z" />
    <glyph glyph-name="redo-1"
      unicode="&#x72;&#x65;&#x64;&#x6F;"
      horiz-adv-x="596.8888888888889" d=" M346.764 612L595.432 402.422L346.764 196.444L382.288 347.556C297.85 353.798 233.906 338.687 169.964 293.354C84.706 232.909 42.077 112.02 27.868 6.242C13.658 89.354 -43.18 270.687 63.392 384.02C129.999 454.854 210.483 469.61 278.825 468.872C319.83 468.43 355.645 463.722 382.288 460.889L346.764 612z" />
    <glyph glyph-name="resize"
      unicode="&#xF11A;"
      horiz-adv-x="612" d=" M612 612L342.869 546.895L478.869 512.895L308.869 410.895L410.869 308.895L512.869 478.895L546.869 342.895L612 612z M0 0L274.869 70.895L138.869 104.895L308.869 206.895L206.869 308.895L104.869 138.895L70.869 274.895L0 0z" />
    <glyph glyph-name="resize-1"
      unicode="&#x72;&#x65;&#x73;&#x69;&#x7A;&#x65;"
      horiz-adv-x="612" d=" M612 612L342.869 546.895L478.869 512.895L308.869 410.895L410.869 308.895L512.869 478.895L546.869 342.895L612 612z M0 0L274.869 70.895L138.869 104.895L308.869 206.895L206.869 308.895L104.869 138.895L70.869 274.895L0 0z" />
    <glyph glyph-name="rotate"
      unicode="&#xF11B;"
      horiz-adv-x="518.4" d=" M262.012 612L276.314 503.649L244.8 504.014C105.624 504.014 0 391.177 0 252C0 112.824 112.824 0 252 0C303.179 0 350.791 15.258 390.544 41.471C396.292 45.261 401.858 49.3 407.264 53.536L355.81 105.005C355.091 104.494 354.398 103.942 353.672 103.444C324.743 83.608 289.726 72 252 72C152.589 72 72 152.589 72 252C72 351.412 145.389 432.014 244.8 432.014V432.296L276.314 432.379L261.984 324.001L515.601 468.014L262.012 612V612z" />
    <glyph glyph-name="rotate-1"
      unicode="&#x72;&#x6F;&#x74;&#x61;&#x74;&#x65;"
      horiz-adv-x="518.4" d=" M262.012 612L276.314 503.649L244.8 504.014C105.624 504.014 0 391.177 0 252C0 112.824 112.824 0 252 0C303.179 0 350.791 15.258 390.544 41.471C396.292 45.261 401.858 49.3 407.264 53.536L355.81 105.005C355.091 104.494 354.398 103.942 353.672 103.444C324.743 83.608 289.726 72 252 72C152.589 72 72 152.589 72 252C72 351.412 145.389 432.014 244.8 432.014V432.296L276.314 432.379L261.984 324.001L515.601 468.014L262.012 612V612z" />
    <glyph glyph-name="save"
      unicode="&#xF11C;"
      horiz-adv-x="644.2105263157895" d=" M8.053 612C3.605 612 0 608.395 0 603.947V8.053C0 3.605 3.605 0 8.053 0H636.158C640.605 0 644.211 3.605 644.211 8.053V479.822C644.211 481.958 643.362 484.007 641.852 485.517L517.727 609.641C516.217 611.152 514.169 612 512.033 612H426.789C422.342 612 418.737 608.395 418.737 603.947V378.474C418.737 374.026 415.132 370.421 410.684 370.421H120.789C116.342 370.421 112.737 374.026 112.737 378.474V603.947C112.737 608.395 109.132 612 104.684 612H8.053z M322.274 587.842C300.037 587.842 281.842 569.816 281.842 547.579V454.533C281.842 432.297 299.919 414.27 322.156 414.27V414.27C344.353 414.27 362.414 432.235 362.471 454.431L362.707 547.477C362.763 569.753 344.55 587.842 322.274 587.842V587.842z" />
    <glyph glyph-name="save-1"
      unicode="&#x73;&#x61;&#x76;&#x65;"
      horiz-adv-x="644.2105263157895" d=" M8.053 612C3.605 612 0 608.395 0 603.947V8.053C0 3.605 3.605 0 8.053 0H636.158C640.605 0 644.211 3.605 644.211 8.053V479.822C644.211 481.958 643.362 484.007 641.852 485.517L517.727 609.641C516.217 611.152 514.169 612 512.033 612H426.789C422.342 612 418.737 608.395 418.737 603.947V378.474C418.737 374.026 415.132 370.421 410.684 370.421H120.789C116.342 370.421 112.737 374.026 112.737 378.474V603.947C112.737 608.395 109.132 612 104.684 612H8.053z M322.274 587.842C300.037 587.842 281.842 569.816 281.842 547.579V454.533C281.842 432.297 299.919 414.27 322.156 414.27V414.27C344.353 414.27 362.414 432.235 362.471 454.431L362.707 547.477C362.763 569.753 344.55 587.842 322.274 587.842V587.842z" />
    <glyph glyph-name="select"
      unicode="&#xF11D;"
      horiz-adv-x="886.3448275862069" d=" M52.759 612H21.103C9.448 612 0 602.552 0 590.897V527.586C0 515.931 9.448 506.483 21.103 506.483H52.759C64.414 506.483 73.862 515.931 73.862 527.586V590.897C73.862 602.552 64.414 612 52.759 612z M865.241 612H833.586C821.931 612 812.483 602.552 812.483 590.897V527.586C812.483 515.931 821.931 506.483 833.586 506.483H865.241C876.897 506.483 886.345 515.931 886.345 527.586V590.897C886.345 602.552 876.897 612 865.241 612z M52.759 443.172H21.103C9.448 443.172 0 433.724 0 422.069V358.759C0 347.103 9.448 337.655 21.103 337.655H52.759C64.414 337.655 73.862 347.103 73.862 358.759V422.069C73.862 433.724 64.414 443.172 52.759 443.172z M52.759 274.345H21.103C9.448 274.345 0 264.897 0 253.241V189.931C0 178.276 9.448 168.828 21.103 168.828H52.759C64.414 168.828 73.862 178.276 73.862 189.931V253.241C73.862 264.897 64.414 274.345 52.759 274.345z M221.586 612H158.276C146.62 612 137.172 602.552 137.172 590.897V559.241C137.172 547.586 146.62 538.138 158.276 538.138H221.586C233.242 538.138 242.69 547.586 242.69 559.241V590.897C242.69 602.552 233.242 612 221.586 612z M390.414 612H327.103C315.448 612 306 602.552 306 590.897V559.241C306 547.586 315.448 538.138 327.103 538.138H390.414C402.069 538.138 411.517 547.586 411.517 559.241V590.897C411.517 602.552 402.069 612 390.414 612z M559.241 612H495.931C484.276 612 474.828 602.552 474.828 590.897V559.241C474.828 547.586 484.276 538.138 495.931 538.138H559.241C570.897 538.138 580.345 547.586 580.345 559.241V590.897C580.345 602.552 570.897 612 559.241 612z M728.069 612H664.759C653.103 612 643.655 602.552 643.655 590.897V559.241C643.655 547.586 653.103 538.138 664.759 538.138H728.069C739.724 538.138 749.172 547.586 749.172 559.241V590.897C749.172 602.552 739.724 612 728.069 612z M728.069 73.862H664.759C653.103 73.862 643.655 64.414 643.655 52.759V21.103C643.655 9.448 653.103 0 664.759 0H728.069C739.724 0 749.172 9.448 749.172 21.103V52.759C749.172 64.414 739.724 73.862 728.069 73.862z M52.759 105.517H21.103C9.448 105.517 0 96.069 0 84.414V21.103C0 9.448 9.448 0 21.103 0H52.759C64.414 0 73.862 9.448 73.862 21.103V84.414C73.862 96.069 64.414 105.517 52.759 105.517z M865.241 443.172H833.586C821.931 443.172 812.483 433.724 812.483 422.069V358.759C812.483 347.103 821.931 337.655 833.586 337.655H865.241C876.897 337.655 886.345 347.103 886.345 358.759V422.069C886.345 433.724 876.897 443.172 865.241 443.172z M865.241 274.345H833.586C821.931 274.345 812.483 264.897 812.483 253.241V189.931C812.483 178.276 821.931 168.828 833.586 168.828H865.241C876.897 168.828 886.345 178.276 886.345 189.931V253.241C886.345 264.897 876.897 274.345 865.241 274.345z M865.241 105.517H833.586C821.931 105.517 812.483 96.069 812.483 84.414V21.103C812.483 9.448 821.931 0 833.586 0H865.241C876.897 0 886.345 9.448 886.345 21.103V84.414C886.345 96.069 876.897 105.517 865.241 105.517z M221.586 73.862H158.276C146.62 73.862 137.172 64.414 137.172 52.759V21.103C137.172 9.448 146.62 0 158.276 0H221.586C233.242 0 242.69 9.448 242.69 21.103V52.759C242.69 64.414 233.242 73.862 221.586 73.862z M390.414 73.862H327.103C315.448 73.862 306 64.414 306 52.759V21.103C306 9.448 315.448 0 327.103 0H390.414C402.069 0 411.517 9.448 411.517 21.103V52.759C411.517 64.414 402.069 73.862 390.414 73.862z M559.241 73.862H495.931C484.276 73.862 474.828 64.414 474.828 52.759V21.103C474.828 9.448 484.276 0 495.931 0H559.241C570.897 0 580.345 9.448 580.345 21.103V52.759C580.345 64.414 570.897 73.862 559.241 73.862z" />
    <glyph glyph-name="select-1"
      unicode="&#x73;&#x65;&#x6C;&#x65;&#x63;&#x74;"
      horiz-adv-x="886.3448275862069" d=" M52.759 612H21.103C9.448 612 0 602.552 0 590.897V527.586C0 515.931 9.448 506.483 21.103 506.483H52.759C64.414 506.483 73.862 515.931 73.862 527.586V590.897C73.862 602.552 64.414 612 52.759 612z M865.241 612H833.586C821.931 612 812.483 602.552 812.483 590.897V527.586C812.483 515.931 821.931 506.483 833.586 506.483H865.241C876.897 506.483 886.345 515.931 886.345 527.586V590.897C886.345 602.552 876.897 612 865.241 612z M52.759 443.172H21.103C9.448 443.172 0 433.724 0 422.069V358.759C0 347.103 9.448 337.655 21.103 337.655H52.759C64.414 337.655 73.862 347.103 73.862 358.759V422.069C73.862 433.724 64.414 443.172 52.759 443.172z M52.759 274.345H21.103C9.448 274.345 0 264.897 0 253.241V189.931C0 178.276 9.448 168.828 21.103 168.828H52.759C64.414 168.828 73.862 178.276 73.862 189.931V253.241C73.862 264.897 64.414 274.345 52.759 274.345z M221.586 612H158.276C146.62 612 137.172 602.552 137.172 590.897V559.241C137.172 547.586 146.62 538.138 158.276 538.138H221.586C233.242 538.138 242.69 547.586 242.69 559.241V590.897C242.69 602.552 233.242 612 221.586 612z M390.414 612H327.103C315.448 612 306 602.552 306 590.897V559.241C306 547.586 315.448 538.138 327.103 538.138H390.414C402.069 538.138 411.517 547.586 411.517 559.241V590.897C411.517 602.552 402.069 612 390.414 612z M559.241 612H495.931C484.276 612 474.828 602.552 474.828 590.897V559.241C474.828 547.586 484.276 538.138 495.931 538.138H559.241C570.897 538.138 580.345 547.586 580.345 559.241V590.897C580.345 602.552 570.897 612 559.241 612z M728.069 612H664.759C653.103 612 643.655 602.552 643.655 590.897V559.241C643.655 547.586 653.103 538.138 664.759 538.138H728.069C739.724 538.138 749.172 547.586 749.172 559.241V590.897C749.172 602.552 739.724 612 728.069 612z M728.069 73.862H664.759C653.103 73.862 643.655 64.414 643.655 52.759V21.103C643.655 9.448 653.103 0 664.759 0H728.069C739.724 0 749.172 9.448 749.172 21.103V52.759C749.172 64.414 739.724 73.862 728.069 73.862z M52.759 105.517H21.103C9.448 105.517 0 96.069 0 84.414V21.103C0 9.448 9.448 0 21.103 0H52.759C64.414 0 73.862 9.448 73.862 21.103V84.414C73.862 96.069 64.414 105.517 52.759 105.517z M865.241 443.172H833.586C821.931 443.172 812.483 433.724 812.483 422.069V358.759C812.483 347.103 821.931 337.655 833.586 337.655H865.241C876.897 337.655 886.345 347.103 886.345 358.759V422.069C886.345 433.724 876.897 443.172 865.241 443.172z M865.241 274.345H833.586C821.931 274.345 812.483 264.897 812.483 253.241V189.931C812.483 178.276 821.931 168.828 833.586 168.828H865.241C876.897 168.828 886.345 178.276 886.345 189.931V253.241C886.345 264.897 876.897 274.345 865.241 274.345z M865.241 105.517H833.586C821.931 105.517 812.483 96.069 812.483 84.414V21.103C812.483 9.448 821.931 0 833.586 0H865.241C876.897 0 886.345 9.448 886.345 21.103V84.414C886.345 96.069 876.897 105.517 865.241 105.517z M221.586 73.862H158.276C146.62 73.862 137.172 64.414 137.172 52.759V21.103C137.172 9.448 146.62 0 158.276 0H221.586C233.242 0 242.69 9.448 242.69 21.103V52.759C242.69 64.414 233.242 73.862 221.586 73.862z M390.414 73.862H327.103C315.448 73.862 306 64.414 306 52.759V21.103C306 9.448 315.448 0 327.103 0H390.414C402.069 0 411.517 9.448 411.517 21.103V52.759C411.517 64.414 402.069 73.862 390.414 73.862z M559.241 73.862H495.931C484.276 73.862 474.828 64.414 474.828 52.759V21.103C474.828 9.448 484.276 0 495.931 0H559.241C570.897 0 580.345 9.448 580.345 21.103V52.759C580.345 64.414 570.897 73.862 559.241 73.862z" />
    <glyph glyph-name="settings"
      unicode="&#xF11E;"
      horiz-adv-x="612" d=" M266.4 612C258.447 612 252 605.553 252 597.6V544.795C252 538.126 247.406 532.375 241.001 530.518C224.295 525.675 208.182 518.984 192.959 510.57C187.114 507.339 179.785 508.152 175.063 512.875L137.869 550.069C132.246 555.692 123.129 555.692 117.505 550.07L61.751 494.326C56.127 488.703 56.127 479.584 61.75 473.96L98.935 436.776C103.648 432.063 104.468 424.753 101.258 418.912C92.858 403.629 86.193 387.455 81.387 370.692C79.545 364.265 73.784 359.649 67.098 359.649H14.4C6.447 359.649 0 353.201 0 345.249V266.4C0 258.447 6.447 252 14.4 252H67.205C73.874 252 79.625 247.406 81.482 241.001C86.325 224.295 93.016 208.182 101.43 192.959C104.661 187.114 103.848 179.785 99.125 175.063L61.75 137.687C56.126 132.063 56.126 122.946 61.75 117.323L117.504 61.568C123.128 55.944 132.247 55.945 137.87 61.569L175.224 98.933C179.937 103.648 187.248 104.468 193.089 101.258C208.271 92.914 224.333 86.282 240.978 81.484C247.395 79.634 252 73.878 252 67.2V14.751C252 6.799 258.447 0.351 266.4 0.351H345.6C353.553 0.351 360 6.799 360 14.751V67.207C360 73.875 364.593 79.626 370.997 81.483C387.622 86.306 403.662 92.958 418.82 101.318C424.664 104.541 431.986 103.725 436.704 99.004L474.13 61.569C479.753 55.945 488.872 55.944 494.496 61.568L550.251 117.323C555.874 122.946 555.874 132.063 550.251 137.687L512.946 174.992C508.229 179.708 507.412 187.024 510.63 192.867C519.028 208.114 525.698 224.25 530.518 240.976C532.367 247.393 538.123 252 544.801 252H597.6C605.553 252 612 258.447 612 266.4V345.249C612 353.201 605.553 359.649 597.6 359.649H544.786C538.101 359.649 532.342 364.262 530.498 370.688C525.696 387.423 519.04 403.569 510.656 418.828C507.446 424.669 508.267 431.978 512.98 436.691L550.249 473.96C555.873 479.584 555.873 488.703 550.248 494.326L494.495 550.07C488.871 555.692 479.754 555.692 474.131 550.069L437.008 512.946C432.292 508.229 424.976 507.412 419.133 510.63C403.886 519.028 387.75 525.698 371.024 530.518C364.607 532.367 360 538.123 360 544.801V597.6C360 605.553 353.553 612 345.6 612H266.4zM306 429.877C338.854 429.875 370.362 416.823 393.592 393.592C416.823 370.362 429.875 338.854 429.877 306C429.875 273.146 416.823 241.638 393.592 218.408C370.362 195.177 338.854 182.125 306 182.123C273.146 182.125 241.638 195.177 218.408 218.408C195.177 241.638 182.125 273.146 182.123 306C182.125 338.854 195.177 370.362 218.408 393.592C241.638 416.823 273.146 429.875 306 429.877z" />
    <glyph glyph-name="settings-1"
      unicode="&#x73;&#x65;&#x74;&#x74;&#x69;&#x6E;&#x67;&#x73;"
      horiz-adv-x="612" d=" M266.4 612C258.447 612 252 605.553 252 597.6V544.795C252 538.126 247.406 532.375 241.001 530.518C224.295 525.675 208.182 518.984 192.959 510.57C187.114 507.339 179.785 508.152 175.063 512.875L137.869 550.069C132.246 555.692 123.129 555.692 117.505 550.07L61.751 494.326C56.127 488.703 56.127 479.584 61.75 473.96L98.935 436.776C103.648 432.063 104.468 424.753 101.258 418.912C92.858 403.629 86.193 387.455 81.387 370.692C79.545 364.265 73.784 359.649 67.098 359.649H14.4C6.447 359.649 0 353.201 0 345.249V266.4C0 258.447 6.447 252 14.4 252H67.205C73.874 252 79.625 247.406 81.482 241.001C86.325 224.295 93.016 208.182 101.43 192.959C104.661 187.114 103.848 179.785 99.125 175.063L61.75 137.687C56.126 132.063 56.126 122.946 61.75 117.323L117.504 61.568C123.128 55.944 132.247 55.945 137.87 61.569L175.224 98.933C179.937 103.648 187.248 104.468 193.089 101.258C208.271 92.914 224.333 86.282 240.978 81.484C247.395 79.634 252 73.878 252 67.2V14.751C252 6.799 258.447 0.351 266.4 0.351H345.6C353.553 0.351 360 6.799 360 14.751V67.207C360 73.875 364.593 79.626 370.997 81.483C387.622 86.306 403.662 92.958 418.82 101.318C424.664 104.541 431.986 103.725 436.704 99.004L474.13 61.569C479.753 55.945 488.872 55.944 494.496 61.568L550.251 117.323C555.874 122.946 555.874 132.063 550.251 137.687L512.946 174.992C508.229 179.708 507.412 187.024 510.63 192.867C519.028 208.114 525.698 224.25 530.518 240.976C532.367 247.393 538.123 252 544.801 252H597.6C605.553 252 612 258.447 612 266.4V345.249C612 353.201 605.553 359.649 597.6 359.649H544.786C538.101 359.649 532.342 364.262 530.498 370.688C525.696 387.423 519.04 403.569 510.656 418.828C507.446 424.669 508.267 431.978 512.98 436.691L550.249 473.96C555.873 479.584 555.873 488.703 550.248 494.326L494.495 550.07C488.871 555.692 479.754 555.692 474.131 550.069L437.008 512.946C432.292 508.229 424.976 507.412 419.133 510.63C403.886 519.028 387.75 525.698 371.024 530.518C364.607 532.367 360 538.123 360 544.801V597.6C360 605.553 353.553 612 345.6 612H266.4zM306 429.877C338.854 429.875 370.362 416.823 393.592 393.592C416.823 370.362 429.875 338.854 429.877 306C429.875 273.146 416.823 241.638 393.592 218.408C370.362 195.177 338.854 182.125 306 182.123C273.146 182.125 241.638 195.177 218.408 218.408C195.177 241.638 182.125 273.146 182.123 306C182.125 338.854 195.177 370.362 218.408 393.592C241.638 416.823 273.146 429.875 306 429.877z" />
    <glyph glyph-name="text"
      unicode="&#xF11F;"
      horiz-adv-x="571.2" d=" M0 612V530.4H244.8V0H326.4V530.4H571.2V612H0z" />
    <glyph glyph-name="text-1"
      unicode="&#x74;&#x65;&#x78;&#x74;"
      horiz-adv-x="571.2" d=" M0 612V530.4H244.8V0H326.4V530.4H571.2V612H0z" />
    <glyph glyph-name="undo"
      unicode="&#xF120;"
      horiz-adv-x="596.8888888888889" d=" M248.668 612L0 402.422L248.668 196.444L213.144 347.556C297.582 353.798 361.525 338.687 425.468 293.354C510.726 232.909 553.355 112.02 567.564 6.242C581.774 89.354 638.612 270.687 532.04 384.02C465.433 454.854 384.949 469.61 316.607 468.872C275.602 468.43 239.787 463.722 213.144 460.889L248.668 612z" />
    <glyph glyph-name="undo-1"
      unicode="&#x75;&#x6E;&#x64;&#x6F;"
      horiz-adv-x="596.8888888888889" d=" M248.668 612L0 402.422L248.668 196.444L213.144 347.556C297.582 353.798 361.525 338.687 425.468 293.354C510.726 232.909 553.355 112.02 567.564 6.242C581.774 89.354 638.612 270.687 532.04 384.02C465.433 454.854 384.949 469.61 316.607 468.872C275.602 468.43 239.787 463.722 213.144 460.889L248.668 612z" />
    <glyph glyph-name="unlinked"
      unicode="&#xF121;"
      horiz-adv-x="538.021978021978" d=" M227.768 612C219.573 612 211.661 609.008 205.517 603.585L145.552 550.662C138.32 544.279 134.177 535.097 134.177 525.45V446.864C134.177 438.315 137.433 430.087 143.283 423.853L208.484 354.378H215.209V388.004V401.455L183.521 435.798C177.789 442.009 174.608 450.15 174.608 458.601V513.55C174.608 523.197 178.75 532.379 185.983 538.762L218.994 567.896C225.137 573.319 233.05 576.311 241.245 576.311H283.193C291.389 576.311 299.303 573.318 305.447 567.894L338.447 538.762C345.678 532.378 349.819 523.197 349.819 513.553V458.566C349.819 450.136 346.653 442.013 340.947 435.807L309.363 401.455V354.378H316.088L381.177 423.858C387.015 430.089 390.263 438.308 390.263 446.847V525.45C390.263 535.097 386.12 544.279 378.888 550.662L318.923 603.585C312.779 609.008 304.867 612 296.672 612H227.768zM38.768 422.026C32.214 425.522 24.067 423.043 20.571 416.489V416.489C17.074 409.934 19.553 401.785 26.109 398.29L109.188 353.981C115.742 350.486 123.889 352.965 127.385 359.518V359.518C130.883 366.074 128.403 374.222 121.847 377.718L38.768 422.026zM517.451 416.489C513.955 423.043 505.808 425.522 499.254 422.026L416.175 377.718C409.619 374.222 407.139 366.074 410.637 359.518V359.518C414.133 352.965 422.28 350.486 428.834 353.981L511.913 398.29C518.469 401.785 520.949 409.934 517.451 416.489V416.489zM13.451 320.751C6.022 320.751 0 314.729 0 307.301V307.301C0 299.872 6.022 293.85 13.451 293.85H107.604C115.033 293.85 121.055 299.872 121.055 307.301V307.301C121.055 314.729 115.033 320.751 107.604 320.751H13.451zM430.418 320.751C422.989 320.751 416.967 314.729 416.967 307.301V307.301C416.967 299.872 422.989 293.85 430.418 293.85H524.571C532 293.85 538.022 299.872 538.022 307.301V307.301C538.022 314.729 532 320.751 524.571 320.751H430.418zM127.385 255.082C123.889 261.636 115.742 264.115 109.188 260.62L26.109 216.312C19.553 212.815 17.074 204.667 20.571 198.112V198.112C24.067 191.558 32.214 189.079 38.768 192.574L121.847 236.883C128.403 240.379 130.883 248.528 127.385 255.082V255.082zM428.834 260.62C422.28 264.115 414.133 261.636 410.637 255.082V255.082C407.139 248.528 409.619 240.379 416.175 236.883L499.254 192.574C505.808 189.079 513.955 191.558 517.451 198.112V198.112C520.949 204.667 518.469 212.815 511.913 216.312L428.834 260.62zM208.484 260.224L143.283 190.748C137.433 184.513 134.177 176.286 134.177 167.736V89.15C134.177 79.504 138.32 70.321 145.552 63.939L205.517 11.015C211.661 5.593 219.573 2.601 227.768 2.601H296.672C304.867 2.601 312.779 5.593 318.923 11.015L378.888 63.939C386.12 70.321 390.263 79.504 390.263 89.15V167.754C390.263 176.292 387.015 184.511 381.177 190.743L316.088 260.224H309.363V213.147L340.947 178.793C346.653 172.587 349.819 164.465 349.819 156.034V101.048C349.819 91.403 345.678 82.223 338.447 75.84L305.447 46.707C299.303 41.283 291.389 38.29 283.193 38.29H241.245C233.05 38.29 225.137 41.282 218.994 46.704L185.983 75.839C178.75 82.223 174.608 91.404 174.608 101.051V156C174.608 164.451 177.789 172.592 183.521 178.803L215.209 213.147V226.597V260.224H208.484z" />
    <glyph glyph-name="unlinked-1"
      unicode="&#x75;&#x6E;&#x6C;&#x69;&#x6E;&#x6B;&#x65;&#x64;"
      horiz-adv-x="538.021978021978" d=" M227.768 612C219.573 612 211.661 609.008 205.517 603.585L145.552 550.662C138.32 544.279 134.177 535.097 134.177 525.45V446.864C134.177 438.315 137.433 430.087 143.283 423.853L208.484 354.378H215.209V388.004V401.455L183.521 435.798C177.789 442.009 174.608 450.15 174.608 458.601V513.55C174.608 523.197 178.75 532.379 185.983 538.762L218.994 567.896C225.137 573.319 233.05 576.311 241.245 576.311H283.193C291.389 576.311 299.303 573.318 305.447 567.894L338.447 538.762C345.678 532.378 349.819 523.197 349.819 513.553V458.566C349.819 450.136 346.653 442.013 340.947 435.807L309.363 401.455V354.378H316.088L381.177 423.858C387.015 430.089 390.263 438.308 390.263 446.847V525.45C390.263 535.097 386.12 544.279 378.888 550.662L318.923 603.585C312.779 609.008 304.867 612 296.672 612H227.768zM38.768 422.026C32.214 425.522 24.067 423.043 20.571 416.489V416.489C17.074 409.934 19.553 401.785 26.109 398.29L109.188 353.981C115.742 350.486 123.889 352.965 127.385 359.518V359.518C130.883 366.074 128.403 374.222 121.847 377.718L38.768 422.026zM517.451 416.489C513.955 423.043 505.808 425.522 499.254 422.026L416.175 377.718C409.619 374.222 407.139 366.074 410.637 359.518V359.518C414.133 352.965 422.28 350.486 428.834 353.981L511.913 398.29C518.469 401.785 520.949 409.934 517.451 416.489V416.489zM13.451 320.751C6.022 320.751 0 314.729 0 307.301V307.301C0 299.872 6.022 293.85 13.451 293.85H107.604C115.033 293.85 121.055 299.872 121.055 307.301V307.301C121.055 314.729 115.033 320.751 107.604 320.751H13.451zM430.418 320.751C422.989 320.751 416.967 314.729 416.967 307.301V307.301C416.967 299.872 422.989 293.85 430.418 293.85H524.571C532 293.85 538.022 299.872 538.022 307.301V307.301C538.022 314.729 532 320.751 524.571 320.751H430.418zM127.385 255.082C123.889 261.636 115.742 264.115 109.188 260.62L26.109 216.312C19.553 212.815 17.074 204.667 20.571 198.112V198.112C24.067 191.558 32.214 189.079 38.768 192.574L121.847 236.883C128.403 240.379 130.883 248.528 127.385 255.082V255.082zM428.834 260.62C422.28 264.115 414.133 261.636 410.637 255.082V255.082C407.139 248.528 409.619 240.379 416.175 236.883L499.254 192.574C505.808 189.079 513.955 191.558 517.451 198.112V198.112C520.949 204.667 518.469 212.815 511.913 216.312L428.834 260.62zM208.484 260.224L143.283 190.748C137.433 184.513 134.177 176.286 134.177 167.736V89.15C134.177 79.504 138.32 70.321 145.552 63.939L205.517 11.015C211.661 5.593 219.573 2.601 227.768 2.601H296.672C304.867 2.601 312.779 5.593 318.923 11.015L378.888 63.939C386.12 70.321 390.263 79.504 390.263 89.15V167.754C390.263 176.292 387.015 184.511 381.177 190.743L316.088 260.224H309.363V213.147L340.947 178.793C346.653 172.587 349.819 164.465 349.819 156.034V101.048C349.819 91.403 345.678 82.223 338.447 75.84L305.447 46.707C299.303 41.283 291.389 38.29 283.193 38.29H241.245C233.05 38.29 225.137 41.282 218.994 46.704L185.983 75.839C178.75 82.223 174.608 91.404 174.608 101.051V156C174.608 164.451 177.789 172.592 183.521 178.803L215.209 213.147V226.597V260.224H208.484z" />
    <glyph glyph-name="zoomin"
      unicode="&#xF122;"
      horiz-adv-x="619.948051948052" d=" M377.641 377.047H299.13V455.557C299.13 473.553 284.639 484.831 266.644 484.831C248.648 484.831 234.157 473.553 234.157 455.557V377.047H155.647C137.652 377.047 127.169 362.555 127.169 344.56C127.169 326.565 137.652 312.073 155.647 312.073H234.157V233.562C234.157 215.567 248.648 206.649 266.644 206.649C284.639 206.649 299.13 215.567 299.13 233.562V312.073H377.641C395.637 312.073 405.351 326.565 405.351 344.56C405.351 362.555 395.477 377.047 377.641 377.047z M265.248 146.312C150.375 146.312 65.212 231.351 65.212 346.224C65.212 461.097 150.375 546.136 265.248 546.136C380.121 546.136 465.161 460.974 465.161 346.224C465.161 231.474 379.998 146.312 265.248 146.312zM605.045 41.915L477.602 194.951C514.326 239.59 523.806 283.903 523.806 346.224C523.806 489.043 408.067 604.906 265.125 604.906C122.181 604.906 6.566 489.043 6.566 346.224C6.566 203.405 122.305 87.542 265.248 87.542C327.569 87.542 372.377 97.64 417.016 134.366L569.434 6.179C575.864 -0.374 595.524 -3.589 605.169 6.179C614.938 16.071 614.938 32.023 605.045 41.915z" />
    <glyph glyph-name="zoomin-1"
      unicode="&#x7A;&#x6F;&#x6F;&#x6D;&#x69;&#x6E;"
      horiz-adv-x="619.948051948052" d=" M377.641 377.047H299.13V455.557C299.13 473.553 284.639 484.831 266.644 484.831C248.648 484.831 234.157 473.553 234.157 455.557V377.047H155.647C137.652 377.047 127.169 362.555 127.169 344.56C127.169 326.565 137.652 312.073 155.647 312.073H234.157V233.562C234.157 215.567 248.648 206.649 266.644 206.649C284.639 206.649 299.13 215.567 299.13 233.562V312.073H377.641C395.637 312.073 405.351 326.565 405.351 344.56C405.351 362.555 395.477 377.047 377.641 377.047z M265.248 146.312C150.375 146.312 65.212 231.351 65.212 346.224C65.212 461.097 150.375 546.136 265.248 546.136C380.121 546.136 465.161 460.974 465.161 346.224C465.161 231.474 379.998 146.312 265.248 146.312zM605.045 41.915L477.602 194.951C514.326 239.59 523.806 283.903 523.806 346.224C523.806 489.043 408.067 604.906 265.125 604.906C122.181 604.906 6.566 489.043 6.566 346.224C6.566 203.405 122.305 87.542 265.248 87.542C327.569 87.542 372.377 97.64 417.016 134.366L569.434 6.179C575.864 -0.374 595.524 -3.589 605.169 6.179C614.938 16.071 614.938 32.023 605.045 41.915z" />
    <glyph glyph-name="zoomout"
      unicode="&#xF123;"
      horiz-adv-x="612" d=" M371.075 384.141H292.565H149.08C131.085 384.141 120.602 369.65 120.602 351.654C120.602 333.659 131.085 319.167 149.08 319.167H292.565H371.075C389.07 319.167 398.784 333.659 398.784 351.654C398.784 369.65 388.911 384.141 371.075 384.141z M258.681 153.406C143.808 153.406 58.646 238.445 58.646 353.319C58.646 468.192 143.808 553.231 258.681 553.231C373.555 553.231 458.594 468.068 458.594 353.319C458.594 238.569 373.431 153.406 258.681 153.406zM598.48 49.009L471.035 202.045C507.76 246.684 517.239 290.997 517.239 353.319C517.239 496.137 401.501 612 258.558 612C115.616 612 0 496.137 0 353.319C0 210.499 115.739 94.637 258.681 94.637C321.003 94.637 365.811 104.735 410.449 141.459L562.868 13.273C569.298 6.72 588.958 3.505 598.603 13.273C608.372 23.165 608.372 39.117 598.48 49.009z" />
    <glyph glyph-name="zoomout-1"
      unicode="&#x7A;&#x6F;&#x6F;&#x6D;&#x6F;&#x75;&#x74;"
      horiz-adv-x="612" d=" M371.075 384.141H292.565H149.08C131.085 384.141 120.602 369.65 120.602 351.654C120.602 333.659 131.085 319.167 149.08 319.167H292.565H371.075C389.07 319.167 398.784 333.659 398.784 351.654C398.784 369.65 388.911 384.141 371.075 384.141z M258.681 153.406C143.808 153.406 58.646 238.445 58.646 353.319C58.646 468.192 143.808 553.231 258.681 553.231C373.555 553.231 458.594 468.068 458.594 353.319C458.594 238.569 373.431 153.406 258.681 153.406zM598.48 49.009L471.035 202.045C507.76 246.684 517.239 290.997 517.239 353.319C517.239 496.137 401.501 612 258.558 612C115.616 612 0 496.137 0 353.319C0 210.499 115.739 94.637 258.681 94.637C321.003 94.637 365.811 104.735 410.449 141.459L562.868 13.273C569.298 6.72 588.958 3.505 598.603 13.273C608.372 23.165 608.372 39.117 598.48 49.009z" />
  </font>
</defs>
</svg>
