<?xml version="1.0" standalone="no"?> 
<!DOCTYPE svg PUBLIC "-//W3C//DTD SVG 1.1//EN" "http://www.w3.org/Graphics/SVG/1.1/DTD/svg11.dtd" >
<svg xmlns="http://www.w3.org/2000/svg">
<defs>
  <font id="ptroiconfont" horiz-adv-x="320">
    <font-face font-family="ptroiconfont"
      units-per-em="320" ascent="320"
      descent="0" />
    <missing-glyph horiz-adv-x="0" />
    <glyph glyph-name="0painterro"
      unicode="&#xF101;"
      horiz-adv-x="320" d=" M144 310.4L137.6 153.6L182.4 153.6L176 310.4zM131.2 144L128.0249984 99.55C128.0249984 99.55 137.6249984 99.55 147.2249984 93.15C156.8249984 86.75 159.9808 79.8184 160 80C160 80 163.2249984 86.75 172.8249984 93.15C182.4249984 99.55 192.0249984 99.55 192.0249984 99.55L188.8 144zM126.5187488 90.95C97.5279552 91.6567072 74.7179616 59.465728 54.4 51.2C36.2552224 44.5000544 22.3990656 54.4 24.26249984 64C25.5990656 67.2 25.48307232 71.3077216 38.4 73.6C28.8 78.5247904 17.74141408 76.7997728 12.8 69.0687488C-4.66966816 45.1990816 44.223216 14.2514144 89.6 16C140.6639616 19.801216 185.3267104 67.499968 135.7187488 89.6124992C132.5833856 90.4526176 129.5177984 90.8768928 126.5187488 90.95zM193.1812512 90.3875008C190.1822016 90.3143808 187.1166144 89.8901184 183.9812512 89.05C134.3732896 66.9374688 179.0360384 19.2387168 230.1 15.4375008C275.476784 13.6889152 324.3696640000001 44.6365824 306.9000000000001 68.5062496C301.9585856000001 76.2372736 290.9000000000001 77.9622912 281.3 73.0375008C294.216928 70.7452224 294.1009344000001 66.6375008 295.4375008 63.4375008C297.3009344 53.8375008 283.4447776 43.9375552 265.3 50.6375008C244.9820384 58.9032288 222.1720448 91.094208 193.1812512 90.3875008z" />
    <glyph glyph-name="apply"
      unicode="&#xF102;"
      horiz-adv-x="320" d=" M31.35438848 159.9074239999998L127.2617696 63.9999039999998L287.2617696000001 223.9999999999998L256 255.9999999999998L128 127.9999039999998L64 191.9999999999998z" />
    <glyph glyph-name="arrow"
      unicode="&#xF103;"
      horiz-adv-x="320" d=" M106.667 320L106.667 277.333L247.147 277.333L0 30.187L30.187 0L277.3330000000001 247.147L277.3330000000001 106.667L320 106.667L320 320z" />
    <glyph glyph-name="blur"
      unicode="&#xF104;"
      horiz-adv-x="320" d=" M40 264L40 232L40 72L72 72L160 72L160 104L72 104L72 232L160 232L160 264L72 264L40 264z M176.0000128 271.9999680000001H192.0000128V255.9999680000001H176.0000128V271.9999680000001z M176.0000256 239.9999680000001H192.0000256V223.9999680000001H176.0000256V239.9999680000001z M208 271.9999680000001H224V255.9999680000001H208V271.9999680000001z M208 239.9999680000001H224V223.9999680000001H208V239.9999680000001z M240 271.9999680000001H256V255.9999680000001H240V271.9999680000001z M240 239.9999680000001H256V223.9999680000001H240V239.9999680000001z M175.9999872 111.9999039999999H191.9999872V95.9999039999999H175.9999872V111.9999039999999z M176.0000128 79.9999039999999H192.0000128V63.9999039999999H176.0000128V79.9999039999999z M207.9999744000001 111.9999039999999H223.9999744000001V95.9999039999999H207.9999744000001V111.9999039999999z M208.0000256 79.9999039999999H224.0000256V63.9999039999999H208.0000256V79.9999039999999z M239.9999744000001 111.9999039999999H255.9999744000001V95.9999039999999H239.9999744000001V111.9999039999999z M239.9999744000001 79.9999039999999H255.9999744000001V63.9999039999999H239.9999744000001V79.9999039999999z M240.0000256 207.9999680000001H256.0000256V191.9999680000001H240.0000256V207.9999680000001z M272.0000256 207.9999680000001H288.0000256V191.9999680000001H272.0000256V207.9999680000001z M240.0000256 175.9999680000001H256.0000256V159.9999680000001H240.0000256V175.9999680000001z M272.0000256 175.9999680000001H288.0000256V159.9999680000001H272.0000256V175.9999680000001z M240.0000256 143.9999039999999H256.0000256V127.9999039999999H240.0000256V143.9999039999999z M272.0000256 143.9999039999999H288.0000256V127.9999039999999H272.0000256V143.9999039999999z M272.0000256 239.9999680000001H288.0000256V223.9999680000001H272.0000256V239.9999680000001z M271.9999744000001 111.9999039999999H287.9999744000001V95.9999039999999H271.9999744000001V111.9999039999999z M272 79.9999039999999H288V63.9999039999999H272V79.9999039999999z M272 271.9999680000001H288V255.9999680000001H272V271.9999680000001z" />
    <glyph glyph-name="brush"
      unicode="&#xF105;"
      horiz-adv-x="320" d=" M254.056256 288L186.168752 220.118752L163.5437504 242.743744L140.918752 220.112512L163.5437504 197.487616L197.4875008 163.543264L220.1125024 140.918304L242.743744 163.543264L220.118752 186.168896L288 254.0562559999999L254.056256 288zM129.6062528 207.3375039999999C129.6062528 207.3375039999999 82.8840448 169.0639359999999 38.0562528 167.1375039999999C37.2510976 167.1023039999999 31.0500032 167.5874559999999 31.0500032 167.5874559999999C42.3637088 111.0184639999999 114.6963904 38.5883839999999 163.8375008 39.2747839999999C164.406176 39.2747839999999 165.8228128 41.1627839999999 166.2375008 41.5685439999999C208.8020224 83.4050239999999 207.5500032 129.2498239999999 207.5500032 129.2498239999999L129.6062528 207.3375039999999z" />
    <glyph glyph-name="close"
      unicode="&#xF106;"
      horiz-adv-x="320" d=" M160 312A151.99999680000005 152.00002240000003 0 0 1 8 159.999904A151.99999680000005 152.00002240000003 0 0 1 160 7.999904A151.99999680000005 152.00002240000003 0 0 1 312 159.999904A151.99999680000005 152.00002240000003 0 0 1 160 312zM160 276.23744A116.23528640000002 116.23530880000004 0 0 0 276.237504 159.9999039999999A116.23528640000002 116.23530880000004 0 0 0 160 43.7624639999998A116.23528640000002 116.23530880000004 0 0 0 43.7624992 159.9999039999999A116.23528640000002 116.23530880000004 0 0 0 160 276.2374400000001zM112 240L80 208L128 159.999904L80 111.999904L112 79.999904L160 127.999904L208 79.999904L240 111.999904L192 159.999904L240 208L208 240L160 192L112 240z" />
    <glyph glyph-name="crop"
      unicode="&#xF107;"
      horiz-adv-x="320" d=" M216 296L216 248L104 248L72 248L72 216L72 104L24 104L24 72L72 72L72 24L104 24L104 72L248 72L248 104L248 216L296 216L296 248L248 248L248 296L216 296zM104 216L216 216L216 104L104 104L104 216z" />
    <glyph glyph-name="ellipse"
      unicode="&#xF108;"
      horiz-adv-x="320" d=" M160 280A119.99999680000005 119.99990720000004 0 0 1 40 159.999904A119.99999680000005 119.99990720000004 0 0 1 160 39.999904A119.99999680000005 119.99990720000004 0 0 1 280 159.999904A119.99999680000005 119.99990720000004 0 0 1 160 280zM160 251.762496A91.76470080000001 91.76463360000001 0 0 0 251.7624960000001 159.9999039999999A91.76470080000001 91.76463360000001 0 0 0 160 68.2373439999999A91.76470080000001 91.76463360000001 0 0 0 68.2375008 159.9999039999999A91.76470080000001 91.76463360000001 0 0 0 160 251.7624960000001z" />
    <glyph glyph-name="eraser"
      unicode="&#xF109;"
      horiz-adv-x="320" d=" M169.4330048 20.6187840000002A11.981663679999999 14.222134400000002 0 0 1 180.4061568 29.1250240000002L270.9923008 274.2875200000002A11.981663679999999 14.222134400000002 0 0 1 260.0191808 294.2187200000003L150.5670848 294.2187200000003A11.981663679999999 14.222134400000002 0 0 1 139.5990848 285.7124800000002L49.0077248 40.5499840000002A11.981663679999999 14.222134400000002 0 0 1 59.9808448 20.6187840000002L169.4330048 20.6187840000002zM202.9420928 160.9189440000003L119.6538048 160.9189440000003L158.3968448 265.7748800000002L241.6850048 265.7748800000002L202.9420928 160.9189440000003z M94.7807136 153.918304L224.700736 153.918304" />
    <glyph glyph-name="line"
      unicode="&#xF10A;"
      horiz-adv-x="320" d=" M267.4812512000001 298.1062499200001L29.89375008 60.5187488L52.5187488 37.8937504000001L290.1062496 275.4812512000001L267.4812512000001 298.1062499200001z" />
    <glyph glyph-name="linked"
      unicode="&#xF10B;"
      horiz-adv-x="320" d=" M134.3249984 304.9812499200001L95.8437504 271.0187488L95.8437504 220.0750016000002L131.2 182.4L134.4 182.4L134.4 198.4L134.4 204.8L115.0812512 225.7375007999999L115.0812512 265.3562495999999L140.7375008 288L172.8 288L198.45 265.3562495999999L198.45 225.7375007999999L179.2 204.8L179.2 182.4L182.4 182.4L217.6937504 220.0750016000002L217.6937504 271.0187488L179.2124992 304.9812499200001L134.3249984 304.9812499200001zM145.75 224.1124992000001L145.75 98.0062495999999L167.85 98.0062495999999L167.85 224.1124992000001L145.75 224.1124992000001zM131.2 137.6L95.8437504 99.9249983999998L95.8437504 48.9812512L134.3249984 15.0187488L179.2124992 15.0187488L217.6937504 48.9812512L217.6937504 99.9249983999998L182.4 137.6L179.2 137.6L179.2 115.2L198.45 94.2624992000001L198.45 54.6437504000001L172.8 32L140.7375008 32L115.0812512 54.6437504000001L115.0812512 94.2624992000001L134.4 115.2L134.4 121.6L134.4 137.6L131.2 137.6z" />
    <glyph glyph-name="loading"
      unicode="&#xF10C;"
      horiz-adv-x="320" d=" M256 159.9999039999999C256 142.3267920054146 270.3268880054146 127.9999039999999 288 127.9999039999999C305.6731119945855 127.9999039999999 320 142.3267920054146 320 159.9999039999999C320 177.6730159945852 305.6731119945855 191.9999039999999 288 191.9999039999999C270.3268880054146 191.9999039999999 256 177.6730159945852 256 159.9999039999999z M221.7096672 250.5097279999998C221.7096672 234.6039220796705 234.6038664048732 221.7097187199997 250.5096672 221.7097187199997C266.4154679951269 221.7097187199997 279.3096672000001 234.6039220796705 279.3096672000001 250.5097279999998C279.3096672000001 266.4155339203291 266.4154679951269 279.3097372799999 250.5096672 279.3097372799999C234.6038664048732 279.3097372799999 221.7096672 266.4155339203291 221.7096672 250.5097279999998z M134.4 289.5999680000001C134.4 275.4614716885491 145.8615104043317 263.9999558400003 160 263.9999558400003C174.1384895956683 263.9999558400003 185.6 275.4614716885491 185.6 289.5999680000001C185.6 303.7384643114511 174.1384895956683 315.1999801599999 160 315.1999801599999C145.8615104043317 315.1999801599999 134.4 303.7384643114511 134.4 289.5999680000001z M47.0903264 250.5097279999998C47.0903264 238.1385538453371 57.1191480037902 228.1097356799997 69.4903264 228.1097356799997C81.8615047962098 228.1097356799997 91.8903264 238.1385538453371 91.8903264 250.5097279999998C91.8903264 262.8809021546625 81.8615047962098 272.9097203199999 69.4903264 272.9097203199999C57.1191480037902 272.9097203199999 47.0903264 262.8809021546625 47.0903264 250.5097279999998z M12.8 159.9999039999999C12.8 149.3960435190311 21.3961328032488 140.7999161599997 32 140.7999161599997C42.6038671967512 140.7999161599997 51.2 149.3960435190311 51.2 159.9999039999999C51.2 170.6037644809687 42.6038671967512 179.1998918400001 32 179.1998918400001C21.3961328032488 179.1998918400001 12.8 170.6037644809687 12.8 159.9999039999999z M53.4903552 69.4901439999998C53.4903552 60.6535837611602 60.6537992027073 53.4901363199995 69.4903552 53.4901363199995C78.3269111972927 53.4901363199995 85.4903552 60.6535837611602 85.4903552 69.4901439999998C85.4903552 78.3267042388394 78.3269111972927 85.4901516800001 69.4903552 85.4901516800001C60.6537992027073 85.4901516800001 53.4903552 78.3267042388394 53.4903552 69.4901439999998z M144 31.9999039999998C144 23.1633437611603 151.1634440027073 15.9998963199996 160 15.9998963199996C168.8365559972927 15.9998963199996 176 23.1633437611603 176 31.9999039999998C176 40.8364642388395 168.8365559972927 47.9999116800001 160 47.9999116800001C151.1634440027073 47.9999116800001 144 40.8364642388395 144 31.9999039999998z M234.5096448 69.4901439999998C234.5096448 60.6535837611602 241.6730888027073 53.4901363199995 250.5096448 53.4901363199995C259.3462007972927 53.4901363199995 266.5096448 60.6535837611602 266.5096448 69.4901439999998C266.5096448 78.3267042388394 259.3462007972927 85.4901516800001 250.5096448 85.4901516800001C241.6730888027073 85.4901516800001 234.5096448 78.3267042388394 234.5096448 69.4901439999998z" />
    <glyph glyph-name="mirror"
      unicode="&#xF10D;"
      horiz-adv-x="320" d=" M40 320L22.0849573786664 322.5944648534525L59.1507222098515 294.3631156565175L42.5944648534525 337.9150426213336L40 320z M144 296L48 24L144 24L144 296zM179.2 296L179.2 24L275.2 24L179.2 296zM193.6 211.2L251.2 38.4L193.6 38.4L193.6 211.2zM203.2 153.6L203.2 48L238.4 48L203.2 153.6z" />
    <glyph glyph-name="open"
      unicode="&#xF10E;"
      horiz-adv-x="320" d=" M41.8249984 279.9999680000001L26.2374992 250.7310080000001L26.2374992 89.7544640000001L73.0062496 221.4619840000001L238.2687488000001 221.4619840000001L238.2687488000001 250.7310080000001L135.3687488 250.7310080000001L119.7812512 279.9999680000001L41.8249984 279.9999680000001zM294.4000000000001 192.1929919999999L97.1750016 192.1593919999999L38.7562496 40.0331839999999L238.2687488000001 40.0011839999999L294.4000000000001 192.1929919999999z" />
    <glyph glyph-name="paste_extend_down"
      unicode="&#xF10F;"
      horiz-adv-x="320" d=" M16 304L16 176L28.00624992 176L304 176L304 304L16 304zM40.0124992 279.9875007999999L279.9875008 279.9875007999999L279.9875008 200.0062495999999L40.0124992 200.0062495999999L40.0124992 279.9875007999999zM115.8750016 160.1812512L115.8750016 147.9375007999999L115.8750016 110.55L46.5812512 110.55L160.1375008 15.5437504000001L273.3375008 110.55L204.1249984 110.55L204.1249984 160.1812512L115.8750016 160.1812512zM140.35 135.7L179.65 135.7L179.65 86.0687488L206.0937504 86.0687488L160.1124992 47.4812512L113.9875008 86.0687488L140.35 86.0687488L140.35 135.7z" />
    <glyph glyph-name="paste_extend_right"
      unicode="&#xF110;"
      horiz-adv-x="320" d=" M17.75624992 305.75L17.75624992 17.75L29.75624992 17.75L145.75 17.75L145.75 305.75L17.75624992 305.75zM41.7624992 281.7375007999999L121.7437504 281.7375007999999L121.7437504 41.7624992000001L41.7624992 41.7624992000001L41.7624992 281.7375007999999zM211.4375008 274.45L211.4375008 205.6437504000001L161.8062496 205.6437504000001L161.8062496 117.8562495999999L173.8124992 117.8562495999999L211.4375008 117.8562495999999L211.4375008 48.9750016000002L305.9062496 161.8875007999999L211.4375008 274.45zM235.4437504 208.4875007999999L274.5750016 161.8624992000001L235.4437504 115.0937504000001L235.4437504 141.8687487999999L185.8124992 141.8687487999999L185.8124992 181.6312512L235.4437504 181.6312512L235.4437504 208.4875007999999z" />
    <glyph glyph-name="paste_fit"
      unicode="&#xF111;"
      horiz-adv-x="320" d=" M16 304L16 292.1124998399999L16 16L304 16L304 304L16 304zM39.7750016 280.2249983999999L280.2249984 280.2249983999999L280.2249984 39.7750016000002L39.7750016 39.7750016000002L39.7750016 280.2249983999999zM256 256L170.7687488 235.3812512000001L213.8375008 224.6124992000001L160 192.3062495999999L192.3 160L224.6062496 213.8437504000002L235.3750016 170.7687488L256 256zM128.3 160L96.5937504 107.1687488L86.0249984 149.4312512L64 64L149.4312512 86.0312512L107.1624992 96.6L160 128.3L128.3 160z" />
    <glyph glyph-name="paste_over"
      unicode="&#xF112;"
      horiz-adv-x="320" d=" M160 304L112 261.3312512000001L136 261.3312512000001L136 240L184 240L184 261.3312512000001L208 261.3312512000001L160 304zM96 224L96 96L105.5062496 96L210.7875008 96L224 96L224 224L96 224zM58.6687488 208L16 160L58.6687488 112L58.6687488 136L80 136L80 184L58.6687488 184L58.6687488 208zM261.3312512 208L261.3312512 184L240 184L240 136L261.3312512 136L261.3312512 112L304 160L261.3312512 208zM115.0062496 204.9875007999999L204.9937504 204.9875007999999L204.9937504 115.0062495999999L115.0062496 115.0062495999999L115.0062496 204.9875007999999zM136 80L136 58.6687488L112 58.6687488L160 16L208 58.6687488L184 58.6687488L184 80L136 80z" />
    <glyph glyph-name="pipette"
      unicode="&#xF113;"
      horiz-adv-x="320" d=" M257.5937504000001 296C247.785952 296 237.9777408 292.2465459200001 230.4624992 284.7312512000001L178.05 232.3124992000001L175.4062496 234.9562495999999C167.1585152 243.2039936000001 153.8789856 243.2039936000001 145.6312512 234.9562495999999C137.3835232 226.7084736000001 137.3835232 213.4289951999999 145.6312512 205.1812512L156.0062496 194.8L48.0562496 86.85C37.3115872 76.10504 37.3115872 58.8008896 48.0562496 48.0562495999998C58.8009088 37.3116096000002 76.1053376 37.3116096000002 86.85 48.0562495999998L194.8 156.0062495999999L205.1750016 145.6312512C213.4227296 137.3835712 226.7085248 137.3835712 234.9562496 145.6312512C243.2039808 153.8789312000001 243.2039808 167.1583136000001 234.9562496 175.4062495999999L232.3124992 178.05L284.7249984 230.4624992000001C299.7554752000001 245.4930592000001 299.7554752000001 269.7006592000002 284.7249984 284.7312512000001C277.20976 292.2465459200001 267.4015424000001 296 257.5937504000001 296zM169.2437504 182.5249983999998L182.5249984 169.2437504000001L168.3875008 155.1062495999999C168.33648 155.0528352000001 168.3025152 154.9900160000001 168.25 154.9375007999999L75.9624992 62.6562495999999C72.2756128 58.9693631999999 66.343136 58.9693631999999 62.6562496 62.6562495999999C58.9693632 66.3431359999999 58.9693632 72.2756128000001 62.6562496 75.9624992000001L154.9375008 168.25C154.990016 168.3025151999998 155.0528352 168.33648 155.1062496 168.3875007999999L169.2437504 182.5249983999998z" />
    <glyph glyph-name="pixelize"
      unicode="&#xF114;"
      horiz-adv-x="320" d=" M67.2 268.8L67.2 227.2L108.8 227.2L108.8 268.8L67.2 268.8zM115.2 268.8L115.2 227.2L156.8 227.2L156.8 268.8L115.2 268.8zM163.2 268.8L163.2 227.2L204.8 227.2L204.8 236.8L204.8 243.2L204.8 268.8L163.2 268.8zM211.2 236.8L211.2 195.2L252.8 195.2L252.8 236.8L211.2 236.8zM67.2 220.8L67.2 179.2L108.8 179.2L108.8 220.8L67.2 220.8zM211.2 188.8L211.2 147.2L252.8 147.2L252.8 188.8L211.2 188.8zM67.2 172.8L67.2 131.2L108.8 131.2L108.8 156.8L108.8 163.2L108.8 172.8L67.2 172.8zM115.2 156.8L115.2 115.2L156.8 115.2L156.8 156.8L115.2 156.8zM163.2 156.8L163.2 115.2L204.8 115.2L204.8 140.8L204.8 147.2L204.8 156.8L163.2 156.8zM67.2 124.8L67.2 83.2L108.8 83.2L108.8 124.8L67.2 124.8zM67.2 76.8L67.2 35.2L108.8 35.2L108.8 76.8L67.2 76.8z" />
    <glyph glyph-name="rect"
      unicode="&#xF115;"
      horiz-adv-x="320" d=" M40 264L40 229.333344L40 55.999904L72 55.999904L280 55.999904L280 90.666784L280 229.333344L280 264L248 264L72 264L40 264zM72 229.333344L248 229.333344L248 90.666784L72 90.666784L72 229.333344z" />
    <glyph glyph-name="redo"
      unicode="&#xF116;"
      horiz-adv-x="320" d=" M178.8648704 288L284.1828640000001 199.2375008L178.8648704 112L193.9102976 176C158.1480224 178.6437504 131.0662528 172.2437504 103.9844832 153.0437504C67.875456 127.4437504 49.820944 76.2437504 43.8027712 31.4437504C37.7846016 66.6437504 13.7119184 143.4437504 58.8481984 191.4437504C87.0583776 221.4437504 121.1456736 227.6937504 150.0904896 227.3812512C167.4573792 227.1937632 182.6262272 225.2 193.9102976 224L178.8648704 288z" />
    <glyph glyph-name="resize"
      unicode="&#xF117;"
      horiz-adv-x="320" d=" M302.6499808000001 302.6374400000001L175.9999968 272.0000000000001L239.9999936000001 256.0000000000001L239.9999936000001 256.0000000000001L159.9999968 208.0000000000001L207.9999968 159.9999040000001L255.9999936000001 240.0000000000001L255.9999936000001 240.0000000000001L271.9999936000001 176z M14.6499776 14.6373439999999L143.9999968 47.9999039999999L79.9999968 63.9999039999999L79.9999968 63.9999039999999L159.9999968 111.9999039999999L111.9999968 159.9999039999999L64 79.9999039999999L64 79.9999039999999L48 143.9999039999999z" />
    <glyph glyph-name="rotate"
      unicode="&#xF118;"
      horiz-adv-x="320" d=" M159.2937504 295.9999359999998L165.65 247.8436799999998L151.6437504 248.0062399999998C89.7878208 248.0062399999998 42.843696 197.8561599999998 42.8437504 135.9999039999998C42.8437504 74.1439039999998 92.9878592 23.9999039999998 154.8437504 23.9999039999998C177.5900192 23.9999039999998 198.7510432 30.7810239999998 216.4187488 42.4312639999998C218.9733568 44.1157439999998 221.4472992 45.9112639999998 223.85 47.7938239999997L200.9812512 70.6687039999997C200.6618592 70.4415039999998 200.3540672 70.1963839999997 200.0312512 69.9749439999997C187.1740128 61.1589439999997 171.6108448 55.9999039999997 154.8437504 55.9999039999997C110.6609696 55.9999039999997 74.8437504 91.8171839999997 74.8437504 135.9999039999997C74.843696 180.1830399999998 107.4609344 216.0062399999998 151.6437504 216.0062399999998L151.6437504 216.1313599999998L165.65 216.1687999999998L159.2812512 168.0000639999998L272 232.0062399999999L159.2937504 296z" />
    <glyph glyph-name="save"
      unicode="&#xF119;"
      horiz-adv-x="320" d=" M32 275.2L32 31.999904L288 31.999904L288 224L236.8 275.2000000000001L198.4 275.2000000000001L198.4 179.2L76.8 179.2L76.8 275.2000000000001L32 275.2000000000001z M140.8 267.3750079999998L140.8 198.3999999999998L172.8 198.3999999999998L172.975008 267.3750079999998L140.8000064 267.3750079999998z" />
    <glyph glyph-name="select"
      unicode="&#xF11A;"
      horiz-adv-x="320" d=" M41.6 252.7999680000001H73.6V220.7999680000001H41.6V252.7999680000001z M246.4 252.7999680000001H278.4000000000001V220.7999680000001H246.4V252.7999680000001z M41.6 201.5999680000001H73.6V169.5999680000001H41.6V201.5999680000001z M41.6 150.3999039999999H73.6V118.3999039999999H41.6V150.3999039999999z M92.8 252.7999680000001H124.8V220.7999680000001H92.8V252.7999680000001z M144 252.7999680000001H176V220.7999680000001H144V252.7999680000001z M195.2 252.7999680000001H227.2V220.7999680000001H195.2V252.7999680000001z M41.6 99.1999039999999H73.6V67.1999039999999H41.6V99.1999039999999z M246.4 201.5999680000001H278.4000000000001V169.5999680000001H246.4V201.5999680000001z M246.4 150.3999039999999H278.4000000000001V118.3999039999999H246.4V150.3999039999999z M246.4 99.1999039999999H278.4000000000001V67.1999039999999H246.4V99.1999039999999z M92.8 99.1999039999999H124.8V67.1999039999999H92.8V99.1999039999999z M144 99.1999039999999H176V67.1999039999999H144V99.1999039999999z M195.2 99.1999039999999H227.2V67.1999039999999H195.2V99.1999039999999z" />
    <glyph glyph-name="settings"
      unicode="&#xF11B;"
      horiz-adv-x="320" d=" M136 296L136 261.0750016000002A103.99999680000002 103.9998752 0 0 1 105.3875008 248.3624992000001L80.75 273L46.9187488 239.1750016000002L71.5437504 214.55A103.99999680000002 103.9998752 0 0 1 58.8937504 183.8437504000001L24 183.8437504000001L24 136L58.9249984 136A103.99999680000002 103.9998752 0 0 1 71.6375008 105.3875007999999L46.9187488 80.6687488L80.75 46.8375007999999L105.45 71.5437504000001A103.99999680000002 103.9998752 0 0 1 136 58.9312512L136 24.1562495999999L184 24.1562495999999L184 58.9249983999998A103.99999680000002 103.9998752 0 0 1 214.5124992 71.5812512L239.25 46.8375007999999L273.0812512 80.6687488L248.4 105.35A103.99999680000002 103.9998752 0 0 1 261.0687488000001 136L296 136L296 183.8437504000001L261.0562496 183.8437504000001A103.99999680000002 103.9998752 0 0 1 248.4187488 214.5124992000001L273.0812512 239.1750016000002L239.25 273L214.65 248.4A103.99999680000002 103.9998752 0 0 1 184 261.0687488L184 296L136 296zM160 215.0562495999999A55.058819200000016 55.05870400000001 0 0 0 215.0562496 160A55.058819200000016 55.05870400000001 0 0 0 160 104.9437504000001A55.058819200000016 55.05870400000001 0 0 0 104.9437504 160A55.058819200000016 55.05870400000001 0 0 0 160 215.0562495999999z" />
    <glyph glyph-name="text"
      unicode="&#xF11C;"
      horiz-adv-x="320" d=" M48 272L48 240L144 240L144 32L176 32L176 240L272 240L272 272L48 272z" />
    <glyph glyph-name="undo"
      unicode="&#xF11D;"
      horiz-adv-x="320" d=" M137.3179936 288L32 199.2375008L137.3179936 112L122.2725664 176C158.0348416 178.6437504 185.1166112 172.2437504 212.1983808 153.0437504C248.307408 127.4437504 266.36192 76.2437504 272.3800928 31.4437504C278.3982624 66.6437504 302.4709472 143.4437504 257.3346656000001 191.4437504C229.1244864 221.4437504 195.0371904 227.6937504 166.0923744 227.3812512C148.7254848 227.1937632 133.5566368 225.2 122.2725664 224L137.3179936 288z" />
    <glyph glyph-name="unlinked"
      unicode="&#xF11E;"
      horiz-adv-x="320" d=" M134.3249984 304.9812499200001L95.8437504 271.0187488L95.8437504 220.0750016000002L131.2 182.4L134.4 182.4L134.4 198.4L134.4 204.8L115.0812512 225.7375007999999L115.0812512 265.3562495999999L140.7375008 288L172.8 288L198.45 265.3562495999999L198.45 225.7375007999999L179.2 204.8L179.2 182.4L182.4 182.4L217.6937504 220.0750016000002L217.6937504 271.0187488L179.2124992 304.9812499200001L134.3249984 304.9812499200001zM44.8 217.6L38.7750016 206.3062495999999L89.6 179.2L95.6249984 190.4937504000001L44.8 217.6zM275.2 217.6L224.3750016 190.4937504000001L230.4 179.2L281.2249984 206.3062495999999L275.2 217.6zM32 166.4L32 153.6L89.6 153.6L89.6 166.4L32 166.4zM230.4 166.4L230.4 153.6L288 153.6L288 166.4L230.4 166.4zM89.6 140.8L38.7750016 113.6937504000001L44.8 102.4L95.6249984 129.5062495999999L89.6 140.8zM230.4 140.8L224.3750016 129.5062495999999L275.2 102.4L281.2249984 113.6937504000001L230.4 140.8zM131.2 137.6L95.8437504 99.9249983999998L95.8437504 48.9812512L134.3249984 15.0187488L179.2124992 15.0187488L217.6937504 48.9812512L217.6937504 99.9249983999998L182.4 137.6L179.2 137.6L179.2 115.2L198.45 94.2624992000001L198.45 54.6437504000001L172.8 32L140.7375008 32L115.0812512 54.6437504000001L115.0812512 94.2624992000001L134.4 115.2L134.4 121.6L134.4 137.6L131.2 137.6z" />
  </font>
</defs>
</svg>
